<?xml version="1.0" encoding="utf-8"?>
<!-- Generator: Adobe Illustrator 14.0.0, SVG Export Plug-In . SVG Version: 6.00 Build 43363)  -->
<!DOCTYPE svg PUBLIC "-//W3C//DTD SVG 1.1//EN" "http://www.w3.org/Graphics/SVG/1.1/DTD/svg11.dtd" [
	<!ENTITY ns_extend "http://ns.adobe.com/Extensibility/1.0/">
	<!ENTITY ns_ai "http://ns.adobe.com/AdobeIllustrator/10.0/">
	<!ENTITY ns_graphs "http://ns.adobe.com/Graphs/1.0/">
	<!ENTITY ns_vars "http://ns.adobe.com/Variables/1.0/">
	<!ENTITY ns_imrep "http://ns.adobe.com/ImageReplacement/1.0/">
	<!ENTITY ns_sfw "http://ns.adobe.com/SaveForWeb/1.0/">
	<!ENTITY ns_custom "http://ns.adobe.com/GenericCustomNamespace/1.0/">
	<!ENTITY ns_adobe_xpath "http://ns.adobe.com/XPath/1.0/">
]>
<svg version="1.1" id="Layer_1" xmlns:x="&ns_extend;" xmlns:i="&ns_ai;" xmlns:graph="&ns_graphs;"
	 xmlns="http://www.w3.org/2000/svg" xmlns:xlink="http://www.w3.org/1999/xlink" x="0px" y="0px" width="4962px" height="7020px"
	 viewBox="0 0 4962 7020" enable-background="new 0 0 4962 7020" xml:space="preserve">
<metadata>
	<sfw  xmlns="&ns_sfw;">
		<slices></slices>
		<sliceSourceBounds  y="-10" x="-10" width="4982" height="7040" bottomLeftOrigin="true"></sliceSourceBounds>
	</sfw>
</metadata>
<g id="XMLID_1_">
	<g >
	<polygon fill="#82ccea" stroke="#000000" stroke-width="0" points="1524,0 4962,0 4962,7020 3530,7020 3484,7020 23,7020 0,7020 
			0,0 		"/>
		<path fill="#eac889" d="M3437,4451c-7.35-5.75-11.45-14.87-16-25c-2.04-4.55-4.17-9.22-6-14c-1.96-5.11-3.16-10.5-5-15
			c-0.98-2.4-2.88-4.31-4-7c-0.62-1.49-0.39-2.44-1-4c-1.08-2.75-3.67-6.7-5-10c-0.98-2.43-0.97-5.44-2-8c-1.03-2.57-3.21-4.62-4-7
			c-0.94-2.8-1.19-5.2-2-8c-0.68-2.34-1.31-5.58-2-8c-3.56-12.48-6.77-28.58-5-44c1.53-13.3,4.94-32.35,14-41
			c1.79-1.71,4.02-2.43,6-4c1.83-1.45,3.25-3.66,5-5c2.14-1.63,4.01-2.41,6-4c1.66-1.33,3.17-3.23,5-5c6.39-6.18,13.15-12.5,17-22
			c1.05-2.59,0.97-5.7,2-9c0.72-2.32,2.62-5.01,3-7c0.58-3.07,0.57-6.7,1-10c2.42-18.67,2.08-49.83-3-68
			c-2.9-10.35-8.24-18.96-13-29c-2.41-5.09-5.82-10.85-6-15c-0.22-5.2,3.15-10.11,5-15c1.81-4.78,3.86-9.69,5-14
			c3.59-13.53,5.11-38.79,1-54c-2.35-8.71-7.53-18.33-13-26c-2.51-3.52-5.75-6.2-9-10c-4.39-5.13-8.91-10.62-14-16
			c-0.75-0.79-2.35-1.16-3-2c-1.61-2.07-4.04-5.7-6-8c-0.25-0.29-1.88-0.73-2-1c-0.23-0.51,0.31-1.54,0-2c-0.25-0.37-1.85-0.68-2-1
			c-5.7-12.64-14.29-24.98-21-39c-2.06-4.31-4.05-9.27-6-14c-1.96-4.74-4.37-9.45-5-14c-1.07-7.8-1.14-21.01,0-28
			c0.14-0.85,1.56-2.62,2-4c2.62-8.23,4.87-16.8,8-26c0.33-0.97,1.79-2.36,2-3c3.88-11.81,5.61-24.16,8-36
			c2.5-12.36,5.96-24.96,6-38c0.02-6.16-1.15-13.16-2-20c-0.8-6.45-1.42-13.04-3-19c-0.73-2.75-2.23-5.53-3-8
			c-4.02-12.93-10.65-25.69-18-37c-1.22-1.87-2.25-4.78-4-7c-0.68-0.86-2.15-1.89-3-3c-1.91-2.49-2.57-2.62-6-5
			c-0.36-0.25-0.68-1.86-1-2c-2.38-1.07-5.11-3.15-8-5c-4.47-2.86-9.42-5.71-14-8c-13.12-6.54-28.73-7.71-31-25
			c-0.76-5.78,0.87-12.18,2-18c0.31-1.6-0.35-3.41,0-5c0.47-2.12,2.68-6.25,4-10c0.93-2.63,0.84-5.62,2-8c0.22-0.45,1.83-0.63,2-1
			c6.93-15.36,15.76-32.13,24-46c0.7-1.18,0.18-1.14,1-2c0.98-1.03,1.76-2.51,3-4c3.72-4.46,6.92-12.32,11-18
			c0.25-0.35,1.86-0.69,2-1c0.23-0.5-0.31-1.55,0-2c0.25-0.36,1.86-0.68,2-1c0.23-0.51-0.31-1.54,0-2c0.25-0.37,1.85-0.67,2-1
			c0.23-0.51-0.31-1.54,0-2c0.25-0.37,1.85-0.68,2-1c0.23-0.51-0.31-1.54,0-2c0.25-0.37,1.85-0.67,2-1c4.08-9.04,12.32-18.81,19-27
			c1.68-2.06,3.62-5.21,6-8c6.44-7.57,14.72-18.51,22-27c3.93-4.58,7.01-7.91,10-9c4.73-1.73,16.87-0.64,23-2
			c8.89-1.97,15.23-7.2,22-13c2.88-2.47,6.31-5.02,9-8c0.74-0.82,1.34-2.2,2-3c2.5-3.07,7.75-7.3,11-11c1.07-1.22,1.75-3.52,3-5
			c3.54-4.18,7.25-7.41,11-12c3.57-4.38,9.93-11.2,13-17c1.09-2.06,1.03-4.87,2-7c0.85-1.86,2.2-3.47,3-5
			c4.21-8.07,7.86-15.85,11-24c6.57-17.04,14.56-31.21,24-45c4.75-6.93,8.18-14.81,12-23c2.93-6.28,5.83-11.08,8-19
			c0.55-1.99,1.42-3.9,2-6c5.25-19.09,7-40.01,7-62c0-24.33,2-46.98,2-68c0-12.15-0.13-21.8-4-31c-1.6-3.81-3.73-6.95-6-11
			c-3.26-5.81-7.46-11.18-8-21c-0.23-4.14,0.96-8.3,1-13c0.05-5.81-0.86-11.19,0-16c0.99-5.53,3.49-10.77,6-16
			c3.09-6.44,9.01-11.49,7-23c-0.12-0.72-1.79-2.87-2-4c-0.68-3.69-0.54-7.2-1-11c-0.96-7.86-2.58-15.64-3-22
			c-0.32-4.74,1.07-7.8,3-12c1.25-2.72,2.84-9.11,4-13c2.37-7.95,3.06-15.65,4-24c1.93-17.14,4.26-35.19,2-55
			c-0.91-7.96-4.02-15.08-7-21c-2.77-5.5-8.32-10.97-10-18c-1.28-5.35-0.87-15.01,0-20c1.92-10.99,9.71-19.23,14-29
			c2.09-4.76,3.15-10.41,5-16c1.83-5.54,4.71-10.69,5-16c1.24-22.61-15.02-25.84-26-37c-13.97-14.2-20.78-33.9-28-56
			c-1.54-4.71-2.76-8.19-4-14c-2.16-10.14-2.05-24.68-6-35c-2.64-6.9-10.48-16.93-20-21c-1.96-0.84-4.8-1.4-7-2
			c-5-1.37-12.69-3.22-19-5c-4.53-1.28-7.97-3.04-12-5c-1.91-0.93-4.28-0.93-6-2c-1.3-0.81-2.53-2.91-4-4c-6-4.44-12.21-10.17-19-14
			c-7.66-4.31-17.8-5.83-22-13c-3.53-6.03-4.04-24.25-2-38c1.13-7.62,3.38-14.63,6-21c0.84-2.05,1.9-4.43,3-7
			c2.31-5.38,5.2-12.01,8-18c1.29-2.75,3.29-4.57,4-7c0.8-2.71,0.05-5.79,1-9c1.18-4,4.18-7.29,5-11c1.51-6.78,1.85-14.23,2-23
			c0.24-13.65-2.37-26.75-2-40c0.34-12.38,3.25-24.88,4-37c1-16.14,2.37-29.57,3-46c0.01-0.31-1.12-2.45-1-4
			c0.24-3.17,0.63-3.37,0-8c-0.35-2.53-0.56-6.59-1-12c-2.2-27.18-1.85-50.33-7-77c-0.15-0.79-0.99-2-1-2c-0.05-0.78,1.22-1.02,1-2
			c-0.11-0.48-1.95-2.69-2-3c-0.13-0.75,1.25-1.04,1-2c-0.71-2.72-2.87-9.32-3-15c-0.06-2.8,1.09-5.94,1-9
			c-0.36-12.69-0.95-25.1-2-37c-1.16-13.16-0.13-26.58-2-40c-0.34-2.43-1.32-4.92-1-6c0.54-1.83-1.68-7.28-2-10
			c-0.53-4.46-0.67-8.29-1-14c-0.04-0.73-1.24-1.09-1-2c0.28-1.06,0.49-6.94,0-11c-0.33-2.68-1.76-5.31-2-8c-0.62-7,0.13-13.35-1-20
			c-0.99-5.78-3.03-11.18-4-17s-1.78-12.08-2-18c-0.55-14.52,5.16-19.47,9-31c2.45-7.36,4.6-16.17,5-25c0.12-2.56,0.39-3.63,0-6
			c-1.29-7.79-4.35-16.31-7-24c-2.63-7.63-6.58-14.22-8-22c-2.95-16.12-1.33-32.27,1-49c0.33-2.39-0.4-4.98,0-7
			c0.36-1.84,1.62-3.19,2-5c2.26-10.71,2.44-21.35,0-35c-3.04-16.99-2.5-33.96-3-50c-0.06-2.04,1.03-3.94,1-6
			c-0.1-7.84-1.58-21.39,0-31c0.64-3.88,2-7.36,2-11s-1.42-8.02-2-12c-1.46-10.02-1.03-25.57-3-38c-1.18-7.41-3.5-14.92-6-21
			c-3.11-7.57-8.42-11.98-9-20c-0.29-4.1,1.93-9.64,3-15c1.02-5.07,1.48-9.9,2-15c1.09-10.78,2.92-21.48,3-31
			c0.12-15-3.63-22.06-13-31c-5.13-4.9-10.58-9.56-17-13c-14.39-7.71-29.58-11.66-48-10c-10.4,0.94-20.43,0.09-29,1
			c-4,0.43-8.27,2.1-12,3c-19.21,4.61-35.64,12.77-46,28c-5.93,8.72-10.41,19.69-14,31c-3.74,11.78-6.93,24.81-7,37
			c-0.07,13.09,2.94,26.21,7,38c1.87,5.43,3.34,11.3,6,16c1.88,3.33,4.45,6.32,7,10c0.25,0.36,1.86,0.68,2,1
			c0.53,1.18,0.52,2.69,2,4c0.92,0.82,3.46,1.02,5,2c1.08,0.69,2.1,1.9,4,3c5.93,3.42,11.54,5.64,19,9c0.49,0.22,1.64,1.89,2,2
			c0.89,0.27,2.13-0.34,3,0c0.51,0.2,1.63,1.89,2,2c4.13,1.25,7.66,3.35,12,5c3.51,1.33,7.77,1.43,11,3c2.74,1.33,5.38,4.26,8,6
			c0.73,0.48,2.2,0.4,3,1c0.45,0.34,0.57,1.72,1,2c1.7,1.08,3.56,1.04,5,2c0.76,0.51,1.04,1.41,2,2c5.09,3.13,12.76,8.08,19,12
			c0.7,0.44,2.22,0.42,3,1c0.43,0.32,0.59,1.76,1,2c1.46,0.87,3.61,1.21,5,2c6.49,3.66,12.55,6.95,25,10c5.99,1.47,17.71,3.19,20,7
			c4.46,7.44-0.17,39.43,1,52c1.32,14.2,7.39,17.83,5,30c0.07-0.37,1.56,0.56,1,1c-2.14,1.71-2.92,7.3-4,12
			c-1.58,6.86-2.25,13.8-3,21c-1.72,16.61-5.17,39.66,2,54c0.42,0.84,1.74,1.44,2,2c5.2,11.31,13.03,30.82,11,43
			c-0.95,5.71-4.95,14.83-7,21c-0.61,1.84-0.26,3.77-1,6c-0.76,2.28-3.3,4.69-4,7c-1.43,4.73-2.84,12.79-2,21
			c0.6,5.87,2.71,11.97,4,18c0.62,2.88,1.18,5.8,2,9c0.52,2.05,1.77,4.97,2,7c0.79,6.81,0.2,14.12,1,21c2.22,19.09,3.51,39.61,6,60
			c0.84,6.91,0.5,14.02,1,21c0.49,6.81,1.81,13.22,2,20c0.42,15.01-1.28,29.47,0,44c0.53,5.99,2.61,12.03,4,18
			c1.4,5.99,3.37,12.05,4,18c0.75,7.08-0.55,14.49,0,22c0.5,6.76,1.82,13.41,2,20c0.2,7.12,0.25,13.86,1,21
			c0.59,5.59,1.99,11.51,2,17c0.02,5.72-1.35,12.04-2,18c-1.92,17.5-2.05,34.7-4,51c-1.22,10.19-3.3,20.87-1,29
			c0.38,1.34,0.82,1.87,1,3c-0.06-0.35-1.57,0.54-1,1c1.47,1.17,2.84,10.34,3,14c0.04,0.87-1.1,2.24-1,4c0.06,1.04,1.12,2.12,1,4
			c-0.41,6.5-3.26,14.6-6,22c-4.9,13.23-10.57,26.96-17,40c-2.21,4.49-4.87,8.82-6,13c-1.39,5.14-1.52,11.19-2,17
			c-0.42,5.06-1.02,10.74-1,16c0.02,5.13,2.47,11.01-1,16c-7.88,3.52-16.1,1.67-24,2c-7.8,0.33-15.78,1.24-23,3
			c-13.51,3.29-26.67,8.34-38,14c-23.43,11.71-45.37,23.53-68,36c-1.62,0.89-3.3,0.9-5,2c-1.07,0.7-1.71,2.22-3,3
			c-2.83,1.71-6.12,2.51-9,4c-16.44,8.52-33.1,18.24-49,29c-1.55,1.05-2.19,1.91-4,3c-8.31,5-19.17,10.35-30,15
			c-5.6,2.4-12.29,5.06-18,8c-6.43,3.31-13.38,6.58-16,10c-2.73,3.56-3.17,10.79-5,17c-1.24,4.19-3.84,8.1-5,12
			c-1.4,4.69-1.18,9.58-3,14c-0.66,1.61-3.05,3.23-4,5c-1.14,2.12-0.93,4.38-2,6c-0.25,0.37-1.85,0.67-2,1c-1.18,2.61-3.67,5.13-6,8
			c-4.89,6.04-9.64,13.02-13,21c-2.38,5.64-3.72,12.87-6,20c-0.21,0.66-0.55,2.1-1,3c-0.41,0.83-1.75,1.46-2,2
			c-5.08,11.31-10.1,23.65-12,39c-1.27,10.25-2.09,20.77-3,31c-0.92,10.31-1.1,19.36,2,30c1.11,3.8,3.27,7.99,5,12
			c1.69,3.92,3.21,8.18,5,12c3.54,7.58,9.22,13.84,12,22c1.65,4.86,1.67,9.9,3,14c0.63,1.95,2.13,3.89,3,6c0.75,1.81,1.07,4.6,2,6
			c1.81,2.73,6.22,5.22,9,8c4.17,4.17,6.92,7.19,11,11c1.6,1.5,4.59,3.13,7,5c4.59,3.56,9.82,7.01,15,11c2.18,1.68,3.82,2.91,6,5
			c0.14,0.13,0.94,0.96,1,1c5.03,3.44,11.02,7.17,17,12c3.01,2.43,5.76,5.44,9,8c0.93,0.74,2.14,1.3,3,2c3.08,2.51,7.49,6.07,11,10
			c6.33,7.08,9.67,17.97,14,29c5.46,13.92,9.44,34.65,15,50c2.7,7.46,5.41,14.5,8,22c3.12,9.01,5.32,20.53,10,29
			c0.94,1.71,1.4,3.33,3,5c2.51,2.62,5.31,10.36,8,14c2.77,3.75,6.44,7,10,10c3.45,2.91,7.09,5.12,11,8c7.4,5.45,14.99,11.78,22,18
			c3.61,3.2,6.82,6.39,10,10c2.38,2.7,4.41,4.83,7,8c5.51,6.76,13.21,17.2,18,26c4.74,8.72,7.92,18.92,11,29
			c1.67,5.46,2.84,10.65,4,16c0.48,2.23,1.69,3.52,2,8c0.63,9.08-0.19,19.11,2,28c0.8,3.26,2.78,6.87,4,11
			c3.06,10.3,2.55,25.57,5,39c0.96,5.28,2.93,10.54,4,16c1.09,5.55,1.65,11.11,3,16c1.05,3.81,3.48,8.6,6,14
			c3.76,8.06,5.32,13.56,10,20c2.47,3.4,6.17,6.89,9,11c1.8,2.62,2.98,4.36,3,6c0.06,5.55-5.11,8.57-9,13
			c-7.57,8.62-11.51,14.9-18,24c-0.84,1.19-2.23,1.77-3,3c-0.75,1.19-0.18,2.83-1,4c-1.38,1.97-3.8,3.28-5,5
			c-5.9,8.44-11.45,16.98-17,25c-0.7,1.01-2.46,2.05-3,3c-0.72,1.28-0.21,2.73-1,4c-0.24,0.39-1.85,0.66-2,1
			c-0.23,0.51,0.31,1.54,0,2c-0.25,0.37-1.85,0.68-2,1c-1.33,2.95-3.19,7.06-6,10c-0.81,0.85-1.2,2.16-2,3c-0.7,0.73-1.67,2.83-3,5
			c-3.94,6.42-7.98,15.97-12,24c-4.83,9.65-9.54,19.12-13,29c-7.99,22.82-12.55,46.25-5,71c2.79,9.15,8.4,14.99,15,22
			c3.36,3.57,5.93,6.31,10,9c9.99,6.62,26,12.53,36,19c4.35,2.82,7.3,4.84,10,9c1.03,1.58,1.83,3.86,3,6c1.02,1.86,2.03,4.12,3,6
			c9.61,18.52,12.41,38.33,10,62c-0.55,5.44-1.84,10.44-3,16c-0.96,4.61-1.64,10.16-3,15c-2.51,8.96-6.98,17.6-10,27
			c-0.82,2.56-1.01,5.4-2,8c-0.77,2.03-2.48,4.14-3,6c-1.43,5.15-1.23,10.92-2,16c-2.38,15.71-2.14,34.68,2,50
			c1.25,4.63,3.3,8.57,5,13c1.9,4.94,2.83,9.5,5,14c1.88,3.9,4.75,7.03,7,11c2.32,4.08,3.73,8.66,6,13c2.01,3.84,4.83,7.25,7,11
			c1.29,2.21,1.71,5.02,3,7c0.25,0.38,1.85,0.67,2,1c1.82,4.04,4.65,7.9,8,12c4.8,5.88,11.64,14.51,19,22c3.12,3.18,6.01,6.27,9,10
			c4.22,5.27,8.71,8.45,10,16c1.15,6.75-0.06,13.71-1,21c-1.03,7.98-7.57,17.29-10,26c-4.1,14.68-3.22,32.59,4,49
			c5.57,12.66,13.48,26.48,16,42c2.63,16.2,1.89,36.52-5,50c-1,1.95-1.06,3.8-2,5c-2.67,3.41-7.68,5.55-12,9
			c-3.89,3.11-6.78,6.44-11,10c-2.93,2.47-7.88,6.22-11,10c-0.84,1.02-1,3.69-2,5c-1.03,1.35-3.4,1.99-4,3
			c-3.39,5.71-5.04,13.34-7,21c-6.34,24.82-7.32,48.78-3,75c2.05,12.46,4.45,23.63,8,34c0.91,2.65,1.68,5.14,3,8
			c0.62,1.34,1.23,3.32,2,5c0.62,1.34,1.23,3.32,2,5c0.62,1.34,1.23,3.32,2,5c6.35,13.77,12.76,31.8,19,47c2.1,5.11,4.28,9.26,7,14
			c2.52,4.4,4.54,8.64,8,13c5.56,6.99,11.96,13.78,21,21c6.33,5.06,14.36,7.35,16,15c1.14,5.33-1.33,12.31-3,20
			c-1.45,6.67-2.31,13.92-4,19c-0.95,2.84-3.06,5.1-4,8c-0.92,2.84-1.11,6.1-2,9c-1.93,6.29-4.6,11.99-6,17
			c-1.55,5.55-2.75,12.34-4,19c-2.43,12.96-3.3,26.16-2,42c0.63,7.64,0.77,13.97,3,20c3.92,10.59,12.96,18.82,23,26
			c4.54,3.25,7.47,3.57,8,8c0.58,4.9-6.88,13.25-11,20c-0.64,1.05-0.41,2.05-1,3c-1.02,1.64-3.42,4.42-5,7
			c-9.57,15.65-16.89,34.11-23,54c-7.14,23.24-9.02,45.43-3,67c1.93,6.92,4.11,15.76,7,24c1.22,3.47,3.6,6.36,5,10
			c1.46,3.81,1.7,8.63,3,13c1.17,3.93,3.51,7.45,4,11c0.68,4.91,0.5,11.26,0,16c-0.45,4.23-2.1,7.72-3,12
			c-1.77,8.41-2.74,17.17-5,26c-2.09,8.17-4.88,16.68-6,25c-2.89,21.44-0.2,40.91,5,55c4.01,10.88,9.66,20.24,16,30
			c1.88,2.89,4.77,5.59,6,9c2.08,5.75,2.21,13.41,3,21c1.52,14.6-0.35,30.38,2,46c0.51,3.42,1.44,6.78,2,10
			c2.77,16.06,5.55,33.96,8,50c1.11,7.24,1.16,14.95,2,22c0.84,7.1,2.83,13.42,3,20c0.18,7.05-1.37,14.02-1,21
			c0.36,6.83,2.47,13.72,3,21c0.56,7.78,0.34,15.15,1,23c2.34,27.67,7.62,54.92,13,81c1.37,6.64,2.21,12.99,4,19
			c2.31,7.75,5.24,13.36,8,22c1.09,3.41,3.67,8.17,5,13c1.91,6.95,1.21,14.09,2,22c0.34,3.38,1.51,6.84,2,10
			c1.98,12.74-0.73,31.39,2,45c0.25,1.24,1.75,2.57,2,4c0.28,1.6-0.37,3.42,0,5c2.79,11.85,7.07,23.2,12,35
			c3.63,8.69,7.38,16.46,11,25c1.16,2.73,1.91,6.21,3,9c2.3,5.86,5.19,10.95,7,17c2.6,8.68,3.62,18.67,5,30c1.13,9.28,1,22.07,1,34
			c0,14.66-3.24,28.93-1,44c1.45,9.79,3.73,14.64,10,23c4.62,6.16,8.74,9.23,9,15c0.28,6.32-4.18,12.44-8,19
			c-3.43,5.89-7.36,11.61-10,17c-10.88,22.18-7.26,54.34,1,78c3.21,9.2,7.88,17.38,13,27c2.73,5.12,6.51,11.22,8,18
			c2.89,13.17,0.14,27.48-3,43c-2.75,13.59-5.63,28.57-6,42c-0.45,16.31,0.53,31.89-1,47c-1.59,15.7-2,30.52-2,45
			c0,8.28,0.41,16.3,0,24c-0.38,7.21-2.06,13.92-3,21c-1.97,14.78-1.79,29.59-3,45c-1.78,22.7-1,46.5-1,71c0,8.29,1.22,16.34,0,23
			c-0.51,2.77-2.71,5.82-4,9c-3.16,7.75-6.67,18.12-10,26c-2.52,5.97-4.66,11.58-6,18c-2.04,9.8-3.56,19.2-2,30
			c0.41,2.84,0.49,6.55,1,9c2.07,9.92,7.42,18.24,12,28c2.26,4.82,6,9.13,6,15c0,10.32,1.13,19.7,0,28c-1.06,7.75-4.09,15.63-7,23
			c-5.17,13.13-11.85,25.81-16,43c-3.85,15.96-4.13,39.28,0,56c0.92,3.71,2.83,7.06,4,11c1.2,4.03,1.82,8.12,3,12
			c2.38,7.83,6.34,15.85,6,23c-0.24,5.16-3.73,9.75-6,14c-1.86,3.48-2.39,5.79-5,9c-2.46,3.02-6.04,8.98-9,13
			c-2.46,3.34-5.41,6.45-7,10c-2.97,6.64-3.86,14.71-5,22c-2.5,16.04-1.65,30.93,2,48c2.03,9.47,7.15,18.98,3,29
			c-1.88,4.55-5.7,8.24-9,13c-0.25,0.36-1.86,0.69-2,1c-0.22,0.49,0.31,1.58,0,2c-1.36,1.84-3.73,3.1-5,5c-0.68,1.01-1.25,2.71-2,4
			c-1.6,2.75-4.01,6.59-6,10c-2.92,5.02-5.08,9.56-7,14c-3.79,8.78-8.92,20.1-10,33c-1.1,13.14-0.62,27.76,1,42
			c1.71,14.97,6.81,29.31,11,43c0.63,2.07,0.35,3.29,1,5c0.38,1,1.73,2.3,2,3c1.99,5.14,3.04,10.86,5,16c0.93,2.45,3.08,4.55,4,7
			c0.99,2.64,1.08,5.8,2,9c3.08,10.75,6.02,19.93,8,34c1.22,8.67,1.63,15.16-2,19H23c2.1-8.25,7.11-13.57,8-21
			c0.93-7.78-1.86-15-1-23c0.28-2.62,2.05-5.96,3-9c2.19-7.04,4.51-13.69,6-20c0.85-3.61,1.32-7.03,2-11c1.2-7.02,3.76-14.26,5-21
			c0.81-4.43,0.15-8.22,1-12c1.19-5.25,4.55-11.21,6-16c0.11-0.38,1.83-1.47,2-2c1.16-3.63,0.65-7.64,2-11c0.42-1.05,2.58-2.26,3-3
			c0.86-1.51,1.51-3.7,2-5c2.59-6.89,3.54-13.89,6-20c1.22-3.04,2.99-5.72,4-9c2.2-7.18,2.02-14.95,4-22c1.46-5.19,5.01-10,7-13
			c1.51-2.27,3.56-5.59,4-8c1.24-6.83-2.76-19.71,0-25c2.28-4.37,9.19-4.06,12-6c2.36-1.63,1.63-2.06,3-4c1.25-1.77,2.78-5.36,4-9
			c1.08-3.23,2.33-7.38,3-11c2.75-14.75,0.94-35.69,4-50c0.81-3.79,3.19-6.89,4-10c1.08-4.14,1.58-8.49,2-12
			c1.05-8.69-1.77-15.86-1-23c0.25-2.33,1.38-4.68,2-7c2.89-10.8,11.12-22.35,14-32c1.54-5.16,2.1-9.75,4-14
			c0.33-0.75,1.57-1.99,2-3c2.98-6.95,4.31-15.31,6-21c2.69-9.06,5.79-17.18,8-25c1.36-4.81,2.86-10.14,4-15
			c1.8-7.71,2.2-15.89,4-23c0.58-2.29,2.41-4.62,3-7c1.14-4.6,0.85-9.41,2-14c1.71-6.81,6.57-14.56,8-20c0.75-2.83,0.1-5.22,1-8
			c1.44-4.48,4.58-8.58,6-13c0.79-2.45,0.38-5.32,1-8c0.63-2.74,1.51-5.26,2-8c0.94-5.25,1.76-10.63,3-16c0.57-2.47,1.48-4.78,2-7
			c0.66-2.82,0.48-5.26,1-8c1.01-5.3,2.45-10.06,4-15c0.65-2.06,2.44-3.93,3-6c0.69-2.58,0.38-5.4,1-8c1.25-5.23,3.04-10.04,4-15
			c1.01-5.21,1.34-10.66,2-16c0.77-6.15,0.85-11.69,1-18c1.06-44.83,0.75-91.6,0-136c-0.1-5.68,0.98-12.09,1-18
			c0.02-6.37-1.52-12.13-1-18c0.49-5.53,3.06-11.32,5-17c1.91-5.6,3.95-11.11,5-17c1.15-6.45,1.37-12.85,3-19
			c0.14-0.54,1.7-2.12,2-3c0.49-1.43,0.66-3.33,1-5c1.36-6.69,1.87-13.69,4-19c1.12-2.78,3.06-4.15,4-7c0.92-2.79,1.2-5.98,2-9
			c1.79-6.77,4.07-16.17,6-22c2.39-7.24,6.91-12.83,9-20c1.82-6.22,1.95-13.16,3-20c1.22-8,3.55-15.24,5-23
			c1.49-7.97,5.23-14.06,7-21c1.59-6.25,0.29-10.16,0-16c-0.19-3.77,0.95-7.14,1-11c0.12-9.77-1.71-20.58,0-28
			c1.07-4.66,3.96-8.06,5-11c1.64-4.63,2.47-9.08,3-14c0.78-7.2,0.04-14.49,1-21c0.6-4.04,1.71-7.06,3-11c0.63-1.93,1.44-3.29,2-5
			c0.79-2.43,0.4-4.6,1-7c0.94-3.79,2.49-7.15,3-11c0.62-4.7,0.14-9.1,1-14c0.63-3.58,2.24-7.46,3-11c0.94-4.33,1.09-8.76,2-13
			c2-9.28,6.21-13.92,8-22c1.47-6.63,0.7-14.53,2-23c1.09-7.1,3.94-14.63,5-21c1.15-6.91,0.23-11.19,0-18c-0.14-4.08,0.93-7.95,1-12
			c0.07-4.23-0.83-8.02-1-12c-0.18-4.3,0.93-7.76,1-12c0.14-8.13-0.46-15.77,0-24c0.21-3.71,0.05-7.27,0-11
			c-0.06-4.31-0.47-8.79,0-13c0.94-8.42,6.6-16.95,8-25c0.7-4.02,1.01-6.89,2-10c0.44-1.38,1.49-2.45,2-4c1.91-5.82,3.03-12.8,5-19
			c2.1-6.62,5.11-12.45,6-18c1.19-7.43-0.79-14.9,0-22c1.03-9.17,7.91-17.48,9-25c1.24-8.57-1.84-16.14-1-24
			c1.04-9.68,8.17-18.48,9-28c0.66-7.61-1.08-15.42,0-23c0.61-4.3,1.46-7.88,3-12c1.32-3.55,4.08-6.98,5-11
			c1.63-7.13-0.94-13.79-1-21c-0.02-2.85,1-4.99,1-8c0-2.85-0.91-6.18-1-9c-0.07-2.37-0.18-4.76,0-7c0.24-2.99,0.92-5.88,1-9
			c0.15-6.33-1.45-12.99-1-19c0.86-11.56,8.02-19.38,9-29c0.68-6.68-1.59-14.36-1-21c0.85-9.59,6.2-17.8,9-27
			c1.26-4.15,2.48-7.89,4-12c1.47-3.96,3.56-8.4,4-12c0.61-4.93-0.74-7.7-1-12c-0.22-3.77,0.95-7.15,1-11c0.12-10.04-1.57-20.9,0-28
			c2.29-10.38,6.02-19.16,7-29c0.55-5.45,1.01-11.19,1-17c-0.01-5.48-1.53-11.03-1-17c0.65-7.33,4.97-13.84,7-21
			c1.06-3.74,1.04-8.33,2-12c1.84-7.02,4.67-13.38,4-21c-0.3-3.42-2.33-5.47-2-9c0.25-2.7,2.08-5.38,3-8c1.24-3.53,1.84-5.77,2-10
			c0.13-3.44-0.36-6.4-1-10c-0.57-3.21-2.17-6.81-2-10c0.17-3.14,2.92-7.18,4-11c1.3-4.59,1.11-8.68,2-13c1.71-8.29,5.65-15.72,6-24
			c0.21-4.92-1.01-9.64-1-15c0.05-20.51,0.66-39.84,1-59c0.09-4.9-0.98-10.06-1-15c-0.02-5.01,1.04-9.75,1-15
			c-0.04-5.45-1.44-10.99-1-16c0.79-9,6.07-16.05,8-22c0.67-2.06,0.28-4.73,1-7c2.76-8.66,7.45-15.66,8-24
			c0.41-6.22-1.32-12.22-1-18c0.17-3.16,1.39-5.66,2-9c0.63-3.47,0.53-7.37,1-11c0.87-6.67,2.66-12.63,4-19
			c1.29-6.1,2.01-12.72,4-19c1.98-6.25,5.39-12.01,6-18c0.47-4.62-0.94-9.03-1-14c-0.06-4.81,1.02-10.24,1-15
			c-0.06-13.39-1.73-28.53,1-39c2.48-9.5,6.81-16.64,9-26c0.72-3.06,0.22-6.99,1-10c0.71-2.74,3.23-5.11,4-8c1.81-6.78,1-14.18,3-20
			c0.7-2.05,1.79-4.24,3-6c1.15-1.67,3.83-3.09,5-5c0.85-1.39,2.21-4.26,3-6c1.92-4.25,3.23-8.26,4-12c1.45-7.09-0.44-14.33,0-23
			c0.17-3.43,1.86-6.72,2-10c0.17-3.94-0.94-7.86-1-12c-0.05-3.76,0.88-7.45,1-11c0.15-4.16-0.94-7.83-1-12
			c-0.12-7.89,0.12-16.2,0-24c-0.25-16.13,1.31-32.24,1-48c-0.16-8.27-1.19-15.54,0-23c1.15-7.2,4.65-13.64,5-21
			c0.19-3.94-0.91-8.08-1-12c-0.1-4.44,0.98-8.76,1-13c0.04-9.24-0.9-17.41,0-26c0.69-6.57-5.28-12.12-6-17
			c-0.39-2.63,1.1-7.85,1-12c-0.13-5.26-1.56-9.32-1-13c1.71-11.2,12.52-12.35,14-24c0.31-2.48-0.81-5.88-1-9
			c-0.2-3.26,0.46-7.54,0-10c-0.95-5.04-6.1-9.78-6-15c0.1-5.38,4.27-7.36,6-10c2.31-3.54,4.48-6.67,5-12c0.3-3.1-0.77-5.68-1-9
			c-0.62-9.17-1.55-24.47,0-31c0.89-3.74,4.47-7.47,6-9c0.89-0.89,2.83-2.66,3-3c0.52-1.03-0.3-2.87,0-4c1.41-5.25,0.3-13.41,1-21
			c0.57-6.23,3.14-12.2,3-17c-0.2-6.77-3.65-13.98-4-21c-0.51-10.31,1-20.12,1-31c0-10.02-0.19-20.25,1-30c0.55-4.47,1.78-8.99,2-13
			c0.26-4.8-0.98-9.08-1-14c-0.02-4.49,1.16-9.38,1-14c-0.17-4.7-2.01-9.27-2-14c0.01-4.89,2.16-9.26,2-14
			c-0.11-3.43-1.54-7.08-2-10c-1.37-8.68-1.06-16.32,0-24c0.54-3.89,1.82-7.11,2-11c0.18-3.73-0.88-7.19-1-11
			c-0.12-3.57,0.94-7.32,1-11c0.06-3.81-0.8-7.28-1-11c-0.24-4.3,0.93-7.76,1-12c0.26-15.75-1.22-31.42-1-47
			c0.43-30.64,0.51-60.96,0-91c-0.26-15.22,1.19-30.7,1-46c-0.34-26.63,0.2-54.97-1-80c-0.2-4.16,0.93-7.85,1-12
			c0.35-21.05-3.45-44.16,2-60c1.09-3.18,4.22-6.06,5-10c1.33-6.71-1.38-14.94,0-23c0.98-5.74,4.63-10.17,7-16
			c1.75-4.32,2.11-7,3-11c1.89-8.52,7.13-16.31,10-23c1.55-3.62,2.83-6.83,3-7c3.02-2.92,6.41-2.1,9-3c3.09-1.07,5.21-1.81,8-4
			c1.77-1.39,4.2-5.23,5-7c0.14-0.31,1.75-0.65,2-1c2.85-3.97,4.45-8.88,6-14c1.17-3.86,2.31-8.01,3-12c1.54-8.87-0.17-18.52,0-29
			c0.31-19.56,0.89-38.99,1-56c0.03-4.56-1.01-9.53-1-14c0.18-57.33,1.48-114.92,0-170c-0.13-4.88,0.94-9.93,1-15
			c0.06-4.58-0.96-9.32-1-14c-0.04-5.12,1.04-10.1,1-15c-0.18-23.19-0.48-47.77,0-70c0.11-5.03-0.98-10.08-1-15
			c-0.02-4.68,1-9.25,1-14c0-5.08-1.24-10.1-1-15c0.2-4.12,1.56-9.96,2-16c0.5-6.99,1.13-14.43,1-18c-0.19-5.22-2.24-10.22-3-15
			c-0.86-5.44-0.21-9.45-1-13c-0.83-3.73-2.63-7.75-3-11c-0.38-3.29-0.5-6-1-9c-0.92-5.53-2.69-10.94-3-16
			c-0.39-6.36,1.15-13.46,1-20c-0.25-11.29-1.41-20.93,2-29c0.98-2.32,2.84-4.12,4-7c2.32-5.74,3-12.27,5-17
			c1.07-2.53,3.43-5.43,5-8c3.56-5.8,6.88-11.63,10-17c0.73-1.25,1.08-3.66,2-5c0.29-0.42,1.63-0.6,2-1c0.69-0.74,0.32-2.22,1-3
			c2.71-3.09,7.63-6.45,12-9c4.51-2.63,10.04-5,15-6c5.91-1.19,11.7-0.13,19,0c6.84,0.12,14.02-1.45,20-1
			c12.04,0.9,23.76,8.07,31,14c0.84,0.69,1.14,2.31,2,3c1.23,0.98,2.94,1.01,4,2c0.9,0.84,2.01,1.87,3,3c0.97,1.11,1.11,3.1,2,4
			c3.91,3.94,8.79,6.45,13,10c3.36,2.83,6.08,5.33,8,8c2.91,4.06,4.05,7.17,7,10c1.88,1.81,4.23,3.09,7,5
			c5.43,3.74,12.52,7.94,16,12c1.01,1.17,0.9,2.8,2,4c4.52,4.96,9.95,6.37,16,9c2.92,1.27,6.13,2.78,9,4c2.95,1.26,6.9,1.8,10,3
			c3.85,1.49,5.65,3.52,9,4c1.72,0.25,2.35,1.08,4,1c2.4-0.12,6.14-2.64,10-2c1.11,0.19,2.51,1.82,4,2c7.42,0.88,14.75,0.13,22,0
			c7.19-0.13,14.73,1.12,22,1c7.78-0.13,14.62-0.24,22,0c6.24,0.21,8.99-4.2,14-6c10.15-3.65,20.86-1.92,32-2
			c5.8-0.04,11.51-1.38,17-2c6.68-0.75,8.82-5.72,14-11c3.87-3.95,10.08-9.4,11-13c1.31-5.11-0.99-13.43,0-17
			c0.64-2.31,3.75-5.65,6-8c2.49-2.6,6.16-4.32,8-6c1.99-1.81,4.71-4.71,7-7c2.39-2.39,6-5.33,7-7c2.54-4.25,2.01-9.71,4-14
			c1.46-3.14,5.08-5.35,7-9c1.84-3.49,2.06-8.14,4-12c1.05-2.1,3.08-2.6,4-4c4.27-6.48,1.63-15.42,4-23c2.03-6.5,8.56-10.72,10-17
			c0.96-4.2-0.98-8.79,0-13c0.79-3.41,2.96-4.21,5-7c2.09-2.86,3.12-4.86,4-8c1.46-5.22-0.27-11.66,1-16c1.05-3.59,3.97-4.19,6-7
			c1.94-2.68,3.49-5.83,4-9c1.1-6.88-1.97-13.08-1-19c0.86-5.25,3.4-7.96,6-12c2.98-4.62,4.03-4.18,5-10c1.39-8.37-1.71-21.1,0-31
			c1.48-8.6,8.65-10.98,10-19c2.28-13.54-0.44-38.32,2-48c1.84-7.29,7.09-15.33,8-22c1.07-7.85,0-17.38,0-27c0-9.34,0.47-19.53-1-24
			c-0.44-1.33-3.62-4.49-4-5c-0.68-0.91-0.32-2.2-1-3c-0.04-0.05-2-1-2-1c-1.08-0.72-1.17-1.11-2-2c-3.67-3.94-6.33-6.88-10-10
			c-4.25-3.61-10.27-7.07-13-10c-0.65-0.7-0.33-2.29-1-3c-1.76-1.85-3.94-4.02-5-5c-0.77-0.71-2.15-0.31-3-1
			c-5.55-4.49-11.5-9.45-14-15c-0.16-0.34-1.76-0.6-2-1c-3.7-6.19-4.97-18.01-8-23c-3.03-4.98-9.85-3.85-13-7c-8-8,4.22-25.67,6-32
			c1.66-5.91,0.07-14.81,0-22c0-0.09,1.04-0.09,1-1c-0.01-0.21-0.92-0.91-1-2c-0.47-6.23-0.06-9.75,0-14c0.08-6.09,0.04-12.35,0-18
			c-0.04-6.49-0.34-12.58,1-18c2.5-10.11,9.44-12.66,11-23c1.66-10.95,0-24,0-37c0-25.19,0-49.83,0-74c0-15.11-1.96-34.75,2-42
			c0.61-1.12,1.34-1.14,2-2c0.68-0.89,0.33-1.99,1-3c1.19-1.8,2.98-2.33,4-4c3.61-5.89,1.39-13.53,1-22c-0.26-5.64,0-12.04,0-18
			c0-11.04-2.06-24.65,0-35c1.47-7.37,7.91-11.46,10-19c0.94-3.37-0.16-8.96,1-14c1.43-6.2,5.28-7.59,7-11c3.65-7.23-3.28-9.86-6-13
			c-3.72-4.29-1.36-12.3-1-18c0.54-8.53-0.62-15.47,1-22c0.8-3.21,3.02-5.85,3-9c-0.02-2.91-2.22-5.59-3-8c-0.95-2.95-2.18-7.15-2-9
			c0.46-4.6,2.92-4.77,6-9c2.81-3.86,4.28-6.36,5-11c1.41-9.05-1.75-20.06,0-30c0.82-4.64,2.96-7.68,5-11c1.14-1.85,3.3-1.73,4-3
			c0.94-1.7,0.58-4.24,1-7c1.6-10.52-2.03-21.26,0-31c1.67-8.02,10.54-12.29,11-20c0.34-5.8-4.24-11.18-4-17
			c0.19-4.53,3.63-9.25,4-14c0.2-2.59-0.87-5.34-1-8c-0.47-10.04,0.62-14.4,4-20c1.15-1.9,3.58-2.3,4-3c3.02-5.04-0.21-13.76-1-20
			c-0.28-2.2-0.66-4.58-1-7c-0.28-2.04-1.14-5.4-1-7c0.33-3.87,3.23-6.58,4-10c0.78-3.46,1.23-6.73,1-10c-0.22-3.21-0.73-9.62-1-15
			c-0.27-5.22,0.97-10.85,0-15c-0.67-2.85-3.42-5.52-5-8c-5.32-8.34-10.4-17.51-11-29c-0.25-4.77,1.01-10.1,1-15
			c-0.05-21.58-0.9-44.03-1-61c-0.06-10.8,1.87-22.02,0-32c-0.96-5.15-4.27-8.13-4-13c0.1-1.85,2.13-5.19,3-8
			c3-9.69,5.38-17.86,7-27c1.36-7.7,0.95-15.06,2-22c1.01-6.67,3.23-12.66,6-18c1.35-2.61,3.75-5.37,5-7c0.61-0.8,0.33-2.18,1-3
			c2.38-2.91,6.55-4.71,9-8c1.37-1.84,1.01-4.34,2-6c0.87-1.46,2.89-2.58,4-4c2.61-3.33,4.91-6.64,8-9c2.64-2.01,6.03-3.62,9-5
			c7.18-3.35,15.48-3.85,22-7c5.38-2.59,9.33-8,15-13c2.32-2.04,5.24-4.25,8-6c3.34-2.12,7.78-2.99,10-5c5.65-5.1,7.1-14.1,13-20
			c1.44-1.44,2.75-1.43,4-2c0.31-0.14,0.65-1.75,1-2c5.95-4.23,12.19-6.09,20-10c2.14-7.3,3.27-16.14,7-23c1.32-2.43,3.59-4.15,5-6
			c0.67-0.87,0.33-2.04,1-3c0.57-0.81,2.29-1.26,3-2c2.66-2.75,6.25-5.05,9-8c2.61-2.8,4.49-7.08,7-10c4.19-4.88,7.18-6.1,8-10
			c0.97-4.61-0.93-8.29-1-12c-0.25-13.03,4.43-23.89,9-30c2.77-3.7,5.68-7.52,8-10c1.45-1.55,1.92-2.87,3-4c0.8-0.84,1.19-2.15,2-3
			c3.18-3.32,5.63-7.3,10-11c3.56-3.01,9.6-5.34,11-8c2.44-4.64,0.09-11.78,2-17c3.35-1.57,4.6-5.03,7-7c2.59-2.12,5.98-3.26,9-5
			c4.66-2.68,9.44-5.04,14-7c5.05-2.17,6.74-4.05,10-7c3.29-2.98,5.9-5.26,8-8c4.58-5.98,11.68-9.15,18-12c0.29-0.13,0.67-1.75,1-2
			c3.02-2.31,5.88-4.63,8-6c3.18-2.06,6.06-3.04,9-5c0.87-2.37,0.39-2.97,1-5c0.73-2.41,2.92-4.42,4-7c2.27-5.4,3.07-11.6,5-17
			c0.57-1.59,2.4-3.18,3-5c1.21-3.65,2.58-8.65,3-12c0.73-5.83-0.7-11.49,0-17c0.94-7.38,6.84-15.47,6-23c-0.58-5.2,0.55-6.08,2-10
			c2.74-7.39,1.19-16.46,3-25c2.28-4.44,7.77-2.63,11-4c4.01-1.69,5.97-2.93,8-7c3.89-7.8,1.55-14.87,3-25
			c1.52-10.66,6.36-17.57,7-25c0.44-5.09-1.03-11.08-1-17c0.03-6.03,1.1-11.96,1-18c-0.19-11.38-1.28-23.77-1-35
			c0.3-11.91,8.33-21.13,9-32c0.42-6.74-1-13.38-1-20c0-37.11,1.15-79,0-116c-0.1-3.08-0.15-5.11,0-8c0.46-8.63,0.4-9.56-4-15
			c-8.08-10-18.3-19.77-27-28c-4.35-4.11-9.27-6.64-12-10c-2.19-2.7-1.07-11.77-2-17c-0.77-4.32-3.99-9.26-3-13
			c0.46-1.71,2.63-3.99,4-5c2.17-1.6,4.57-0.79,7-2c4.15-2.07,9.46-4.33,11-8c0.73-1.75,0.24-7.19,1-12c0.67-4.22,1.89-8.54,2-12
			c0.13-4.29-1-8.66-1-13c0-4.49,1.01-9.1,1-13c-0.01-4.17-1.04-8.15-1-12c0.04-4.13,1.39-7.65,2-12c1.26-8.93,0.71-17.55,3-25
			c2.6-8.46,8.59-14,13-22c3.7-6.72,4.8-14.28,8-22c1.8-4.33,5.22-8.62,7-11c0.49-0.65,0.72-2.43,1-3c1.76-3.63,2.47-8.23,4-11
			c1.95-3.52,4.58-6.07,6-9c1.24-2.56,2.56-5.95,3-8c1.82-8.36,3.5-18.02,6-23c2.91-5.81,6.4-10.64,10-15c2.32-2.81,4.24-4.07,6-7
			c1.51-2.52,3.53-5.76,4-9c0.78-5.35-1.29-11.03-1-17c0.2-4.07,1.63-8.75,2-13c0.7-8.07,0.27-15.1,2-21c2.02-6.88,9.01-15.4,11-24
			c1.38-5.99,1.94-11.69,2-18c0.05-5.55-1.42-11.36-1-17c0.79-10.67,5.1-16.04,8-25c1.14-3.51,0.89-7.59,2-11
			c1.08-3.33,3.91-5.97,5-9c1.91-5.3,2.66-13.88,6-21c3.97-8.48,8.87-12.72,9-18c0.17-6.8-3.91-9.55-7-16c0-0.33,0-0.67,0-1h3438
			v7020H3530c5.81-11.92,0.66-24.49-2-36c-2.76-11.94-5.73-24.23-10-36c-5.81-16.02-11.56-34.93-17-52c-1.86-5.83-4.34-11.74-5-17
			c-1.11-8.83-1.05-20.1,0-30c0.4-3.73,1.79-7.3,3-11c1.14-3.51,1.82-6.94,3-10c0.2-0.51,1.89-1.63,2-2c0.71-2.35,0.83-4.6,2-7
			c1.44-2.95,3.29-5.6,5-8c4.94-6.92,11.84-14.1,17-22c1.01-1.55,0.99-3.46,2-5c0.8-1.22,2.33-1.72,3-3c7.19-13.8,6.85-29.95,4-45
			c-2.54-13.45-6.51-27.37-6-46c0.1-3.71,2.05-7.67,4-11c2.16-3.69,4.37-5.8,7-10c3.29-5.27,7.91-11.1,11-18
			c1.15-2.57,1.83-5.14,3-8c1.04-2.54,3.04-4.71,4-7c5.76-13.67,4.9-34.92,0-49c-1.04-2.99-3.07-5.15-4-8c-0.98-3-1.08-5.78-2-9
			c-1.54-5.36-3.99-10.54-5-17c-2.1-13.49-0.57-24.8,3-37c1.26-4.3,1.74-7.55,4-12c0.6-1.19,1.4-1.75,2-3c3.41-7.08,6.28-14.67,9-23
			c0.87-2.67,1.17-5.18,2-8c1.6-5.42,4.34-10.4,5-16c1.33-11.37,1.22-28.97,0-42c-1.05-11.22-6.65-21.5-11-31
			c-5.31-11.61-11.21-17.35-8-32c2.9-13.27,14.7-22.81,18-34c1.23-4.18,1.38-9.8,2-15c2.99-24.85,1.23-55.49,1-80
			c-0.1-10.29,2.58-20.21,3-30c0.37-8.46-1.06-17.14,0-26c0.23-1.95,1.71-3.89,2-6c2.71-19.48,3-40.83,3-64c0-5.81-0.29-11.39,0-17
			c0.25-4.73,1.69-9.2,2-14c1.12-17.4-1.55-33.44,0-51c0.4-4.49,2.29-9.16,3-14c0.77-5.24,1.1-9.79,2-15c2.16-12.48,5.93-27.89,6-44
			c0.09-20.28-4.22-37.98-13-54c-3.97-7.24-8.37-14.92-11-23c-1.38-4.23-2.7-8.92-4-13c-1.91-6-4.09-9.94-3-17
			c0.98-6.35,5.6-12.39,9-19c3.18-6.19,6.07-12.6,9-18c2.34-4.31,4.88-8.49,7-14c2.32-6.02,7.07-20.17,5-29c-1.2-5.11-2.46-7.3-5-11
			c-3.52-5.12-8.55-11.15-13-17c-2.68-3.53-5.43-5.69-6-9c-0.63-3.64,1.59-7.63,2-12c1.93-20.51-0.26-44.69-2-64
			c-0.71-7.95-1.26-15.53-3-23c-5.97-25.59-19.68-51.81-29-76c-2.57-6.67-5.74-12.9-7-20c-3.89-21.87-1.48-50.31-5-74
			c-1.12-7.56-3.68-14.12-6-21c-3.31-9.79-6.94-18.27-10-29c-0.92-3.22-2.19-6.68-3-10c-1.86-7.63-1.72-15.29-3-23
			c-0.63-3.78-2.39-7.12-3-11c-0.57-3.62-0.27-8.03-1-12c-0.32-1.78-1.76-3.36-2-5c-1.88-12.91-3.41-26.9-4-42
			c-0.17-4.26-0.46-7.86-1-12c-0.45-3.48-1.84-7.53-2-11c-0.35-7.82,1.24-16.19,1-26c-0.19-8.04-1-16.03-2-24
			c-0.96-7.63-1.59-15.41-3-23c-1.31-7.04-3.93-13.83-5-21c-0.6-4.04-0.44-8.8-1-13c-1.31-9.87-4.21-22.18-5-34
			c-0.61-9.09,0.31-17.94,0-27c-0.52-14.93-3.33-31.78-9-44c-5.4-11.65-12.89-21.08-18-34c-1.29-3.27-2.09-6.29-3-10
			c-0.85-3.46-2.87-7.07-3-10c-0.15-3.51,1.31-7.66,2-12c3.99-25.04,14.32-54.57,14-82c-0.09-8.01-1.97-15.35-4-24
			c-1.68-7.15-2.62-15.3-5-22c-0.18-0.52-1.89-1.62-2-2c-0.27-0.89,0.34-2.13,0-3c-0.2-0.51-1.89-1.63-2-2
			c-1.13-3.73-2.61-8.05-4-12c-2.29-6.5-5.42-14.11-6-21c-0.47-5.64,0.92-11.06,2-17c1.62-8.89,3.37-15.68,6-23
			c2.31-6.43,5.18-12.99,8-19c3.92-8.36,7.8-17.17,13-25c0.25-0.37,1.85-0.67,2-1c0.23-0.51-0.31-1.54,0-2c0.25-0.37,1.85-0.68,2-1
			c0.82-1.82,2.47-4.6,4-7c2.29-3.57,5.58-7.37,7-11c1.59-4.06,1.91-10.16,3-15c1.98-8.78,5.08-15.5,2-24c-3.63-10.02-7.6-17-14-22
			c-7.99-6.25-17.44-7.23-21-15c-2.41-5.26-1.21-10.72-1-16c0.03-0.77-1.25-1.05-1-2c2.24-8.51,3.49-20.68,6-31
			c2.56-10.5,5.75-20.72,9-31c6.75-21.32,14.36-43.01,10-67c-1.25-6.9-2.76-12.57-7-17c-0.45-0.47-1.9-2.69-3-4
			c-4.23-5.05-9.94-10.4-16-15c-1.88-1.43-3.91-2.43-6-4c-0.33-0.25-0.7-1.87-1-2c-0.51-0.23-1.54,0.31-2,0
			c-0.37-0.25-0.68-1.85-1-2C3438.52,4450.79,3437.4,4451.32,3437,4451z"/>
	</g>

	<g>
		<path fill="none" stroke="#000000" stroke-width="0" stroke-linecap="round" d="M1524,0c0,0.33,0,0.67,0,1
			c3.09,6.45,7.17,9.2,7,16c-0.13,5.28-5.03,9.52-9,18c-3.34,7.12-4.09,15.7-6,21c-1.09,3.03-3.92,5.67-5,9
			c-1.11,3.41-0.86,7.49-2,11c-2.9,8.96-7.21,14.33-8,25c-0.42,5.64,1.05,11.45,1,17c-0.06,6.31-0.62,12.01-2,18
			c-1.99,8.6-8.98,17.12-11,24c-1.73,5.9-1.3,12.93-2,21c-0.37,4.25-1.8,8.93-2,13c-0.29,5.97,1.78,11.65,1,17
			c-0.47,3.24-2.49,6.48-4,9c-1.76,2.93-3.68,4.19-6,7c-3.6,4.36-7.09,9.19-10,15c-2.5,4.98-4.18,14.64-6,23
			c-0.44,2.05-1.76,5.44-3,8c-1.42,2.93-4.05,5.48-6,9c-1.53,2.77-2.24,7.37-4,11c-0.28,0.57-0.51,2.35-1,3
			c-1.78,2.38-5.2,6.67-7,11c-3.2,7.72-4.3,15.28-8,22c-4.41,8-10.4,13.54-13,22c-2.29,7.45-1.74,16.07-3,25
			c-0.61,4.35-1.96,7.87-2,12c-0.04,3.85,0.99,7.83,1,12c0.01,3.9-1,8.51-1,13c0,4.34,1.13,8.71,1,13c-0.11,3.46-1.33,7.78-2,12
			c-0.76,4.81-0.27,10.25-1,12c-1.54,3.67-6.85,5.93-11,8c-2.43,1.21-4.83,0.4-7,2c-1.37,1.01-3.54,3.29-4,5
			c-0.99,3.74,2.23,8.68,3,13c0.93,5.23-0.19,14.3,2,17c2.73,3.36,7.65,5.89,12,10c8.7,8.23,18.92,18,27,28c4.4,5.44,4.46,6.37,4,15
			c-0.15,2.89-0.1,4.92,0,8c1.15,37,0,78.89,0,116c0,6.62,1.42,13.26,1,20c-0.67,10.87-8.7,20.09-9,32c-0.28,11.23,0.81,23.62,1,35
			c0.1,6.04-0.97,11.97-1,18c-0.03,5.92,1.44,11.91,1,17c-0.64,7.43-5.48,14.34-7,25c-1.45,10.13,0.89,17.2-3,25
			c-2.03,4.07-3.99,5.31-8,7c-3.23,1.37-8.72-0.44-11,4c-1.81,8.54-0.26,17.61-3,25c-1.45,3.92-2.58,4.8-2,10
			c0.84,7.53-5.06,15.62-6,23c-0.7,5.51,0.73,11.17,0,17c-0.42,3.35-1.79,8.35-3,12c-0.6,1.82-2.43,3.41-3,5
			c-1.93,5.4-2.73,11.6-5,17c-1.08,2.58-3.27,4.59-4,7c-0.61,2.03-0.13,2.63-1,5c-2.94,1.96-5.82,2.94-9,5c-2.12,1.37-4.98,3.69-8,6
			c-0.33,0.25-0.71,1.87-1,2c-6.32,2.85-13.42,6.02-18,12c-2.1,2.74-4.71,5.02-8,8c-3.26,2.95-4.95,4.83-10,7
			c-4.56,1.96-9.34,4.32-14,7c-3.02,1.74-6.41,2.88-9,5c-2.4,1.97-3.65,5.43-7,7c-1.91,5.22,0.44,12.36-2,17
			c-1.4,2.66-7.44,4.99-11,8c-4.37,3.7-6.82,7.68-10,11c-0.81,0.85-1.2,2.16-2,3c-1.08,1.13-1.55,2.45-3,4c-2.32,2.48-5.23,6.3-8,10
			c-4.57,6.11-9.25,16.97-9,30c0.07,3.71,1.97,7.39,1,12c-0.82,3.9-3.81,5.12-8,10c-2.51,2.92-4.39,7.2-7,10
			c-2.75,2.95-6.34,5.25-9,8c-0.71,0.74-2.43,1.19-3,2c-0.67,0.96-0.33,2.13-1,3c-1.41,1.85-3.68,3.57-5,6
			c-3.73,6.86-4.86,15.7-7,23c-7.81,3.91-14.05,5.77-20,10c-0.35,0.25-0.69,1.86-1,2c-1.25,0.57-2.56,0.56-4,2
			c-5.9,5.9-7.35,14.9-13,20c-2.22,2.01-6.66,2.88-10,5c-2.76,1.75-5.68,3.96-8,6c-5.67,5-9.62,10.41-15,13
			c-6.52,3.15-14.82,3.65-22,7c-2.97,1.38-6.36,2.99-9,5c-3.09,2.36-5.39,5.67-8,9c-1.11,1.42-3.13,2.54-4,4
			c-0.99,1.66-0.63,4.16-2,6c-2.45,3.29-6.62,5.09-9,8c-0.67,0.82-0.39,2.2-1,3c-1.25,1.63-3.65,4.39-5,7
			c-2.77,5.34-4.99,11.33-6,18c-1.05,6.94-0.64,14.3-2,22c-1.62,9.14-4,17.31-7,27c-0.87,2.81-2.9,6.15-3,8
			c-0.27,4.87,3.04,7.85,4,13c1.87,9.98-0.06,21.2,0,32c0.1,16.97,0.95,39.42,1,61c0.01,4.9-1.25,10.23-1,15
			c0.6,11.49,5.68,20.66,11,29c1.58,2.48,4.33,5.15,5,8c0.97,4.15-0.27,9.78,0,15c0.27,5.38,0.78,11.79,1,15
			c0.23,3.27-0.22,6.54-1,10c-0.77,3.42-3.67,6.13-4,10c-0.14,1.6,0.72,4.96,1,7c0.34,2.42,0.72,4.8,1,7c0.79,6.24,4.02,14.96,1,20
			c-0.42,0.7-2.85,1.1-4,3c-3.38,5.6-4.47,9.96-4,20c0.13,2.66,1.2,5.41,1,8c-0.37,4.75-3.81,9.47-4,14c-0.24,5.82,4.34,11.2,4,17
			c-0.46,7.71-9.33,11.98-11,20c-2.03,9.74,1.6,20.48,0,31c-0.42,2.76-0.06,5.3-1,7c-0.7,1.27-2.86,1.15-4,3
			c-2.04,3.32-4.18,6.36-5,11c-1.75,9.94,1.41,20.95,0,30c-0.72,4.64-2.19,7.14-5,11c-3.08,4.23-5.54,4.4-6,9
			c-0.18,1.85,1.05,6.05,2,9c0.78,2.41,2.98,5.09,3,8c0.02,3.15-2.2,5.79-3,9c-1.62,6.53-0.46,13.47-1,22c-0.36,5.7-2.72,13.71,1,18
			c2.72,3.14,9.65,5.77,6,13c-1.72,3.41-5.57,4.8-7,11c-1.16,5.04-0.06,10.63-1,14c-2.09,7.54-8.53,11.63-10,19
			c-2.06,10.35,0,23.96,0,35c0,5.96-0.26,12.36,0,18c0.39,8.47,2.61,16.11-1,22c-1.02,1.67-2.81,2.2-4,4c-0.67,1.01-0.32,2.11-1,3
			c-0.66,0.86-1.39,0.88-2,2c-3.96,7.25-2,26.89-2,42c0,24.17,0,48.81,0,74c0,13,1.66,26.05,0,37c-1.56,10.34-8.5,12.89-11,23
			c-1.34,5.42-1.04,11.51-1,18c0.04,5.65,0.08,11.91,0,18c-0.06,4.25-0.47,7.77,0,14c0.08,1.09,0.99,1.79,1,2c0.04,0.91-1,0.91-1,1
			c0.07,7.19,1.66,16.09,0,22c-1.78,6.33-14,24-6,32c3.15,3.15,9.97,2.02,13,7c3.03,4.99,4.3,16.81,8,23c0.24,0.4,1.84,0.66,2,1
			c2.5,5.55,8.45,10.51,14,15c0.85,0.69,2.23,0.29,3,1c1.06,0.98,3.24,3.15,5,5c0.67,0.71,0.35,2.3,1,3c2.73,2.93,8.75,6.39,13,10
			c3.67,3.12,6.33,6.06,10,10c0.83,0.89,0.92,1.28,2,2c0,0,1.96,0.95,2,1c0.68,0.8,0.32,2.09,1,3c0.38,0.51,3.56,3.67,4,5
			c1.47,4.47,1,14.66,1,24c0,9.62,1.07,19.15,0,27c-0.91,6.67-6.16,14.71-8,22c-2.44,9.68,0.28,34.46-2,48
			c-1.35,8.02-8.52,10.4-10,19c-1.71,9.9,1.39,22.63,0,31c-0.97,5.82-2.02,5.38-5,10c-2.6,4.04-5.14,6.75-6,12
			c-0.97,5.92,2.1,12.12,1,19c-0.51,3.17-2.06,6.32-4,9c-2.03,2.81-4.95,3.41-6,7c-1.27,4.34,0.46,10.78-1,16
			c-0.88,3.14-1.91,5.14-4,8c-2.04,2.79-4.21,3.59-5,7c-0.98,4.21,0.96,8.8,0,13c-1.44,6.28-7.97,10.5-10,17
			c-2.37,7.58,0.27,16.52-4,23c-0.92,1.4-2.95,1.9-4,4c-1.94,3.86-2.16,8.51-4,12c-1.92,3.65-5.54,5.86-7,9
			c-1.99,4.29-1.46,9.75-4,14c-1,1.67-4.61,4.61-7,7c-2.29,2.29-5.01,5.19-7,7c-1.84,1.68-5.51,3.4-8,6c-2.25,2.35-5.36,5.69-6,8
			c-0.99,3.57,1.31,11.89,0,17c-0.92,3.6-7.13,9.05-11,13c-5.18,5.28-7.32,10.25-14,11c-5.49,0.62-11.2,1.96-17,2
			c-11.14,0.08-21.85-1.65-32,2c-5.01,1.8-7.76,6.21-14,6c-7.38-0.24-14.22-0.13-22,0c-7.27,0.12-14.81-1.13-22-1
			c-7.25,0.13-14.58,0.88-22,0c-1.49-0.18-2.89-1.81-4-2c-3.86-0.64-7.6,1.88-10,2c-1.65,0.08-2.28-0.75-4-1
			c-3.35-0.48-5.15-2.51-9-4c-3.1-1.2-7.05-1.74-10-3c-2.87-1.22-6.08-2.73-9-4c-6.05-2.63-11.48-4.04-16-9c-1.1-1.2-0.99-2.83-2-4
			c-3.48-4.06-10.57-8.26-16-12c-2.77-1.91-5.12-3.19-7-5c-2.95-2.83-4.09-5.94-7-10c-1.92-2.67-4.64-5.17-8-8
			c-4.21-3.55-9.09-6.06-13-10c-0.89-0.9-1.03-2.89-2-4c-0.99-1.13-2.1-2.16-3-3c-1.06-0.99-2.77-1.02-4-2c-0.86-0.69-1.16-2.31-2-3
			c-7.24-5.93-18.96-13.1-31-14c-5.98-0.45-13.16,1.12-20,1c-7.3-0.13-13.09-1.19-19,0c-4.96,1-10.49,3.37-15,6
			c-4.37,2.55-9.29,5.91-12,9c-0.68,0.78-0.31,2.26-1,3c-0.37,0.4-1.71,0.58-2,1c-0.92,1.34-1.27,3.75-2,5
			c-3.12,5.37-6.44,11.2-10,17c-1.57,2.57-3.93,5.47-5,8c-2,4.73-2.68,11.26-5,17c-1.16,2.88-3.02,4.68-4,7
			c-3.41,8.07-2.25,17.71-2,29c0.15,6.54-1.39,13.64-1,20c0.31,5.06,2.08,10.47,3,16c0.5,3,0.62,5.71,1,9c0.37,3.25,2.17,7.27,3,11
			c0.79,3.55,0.14,7.56,1,13c0.76,4.78,2.81,9.78,3,15c0.13,3.57-0.5,11.01-1,18c-0.44,6.04-1.8,11.88-2,16c-0.24,4.9,1,9.92,1,15
			c0,4.75-1.02,9.32-1,14c0.02,4.92,1.11,9.97,1,15c-0.48,22.23-0.18,46.81,0,70c0.04,4.9-1.04,9.88-1,15c0.04,4.68,1.06,9.42,1,14
			c-0.06,5.07-1.13,10.12-1,15c1.48,55.08,0.18,112.67,0,170c-0.01,4.47,1.03,9.44,1,14c-0.11,17.01-0.69,36.44-1,56
			c-0.17,10.48,1.54,20.13,0,29c-0.69,3.99-1.83,8.14-3,12c-1.55,5.12-3.15,10.03-6,14c-0.25,0.35-1.86,0.69-2,1
			c-0.8,1.77-3.23,5.61-5,7c-2.79,2.19-4.91,2.93-8,4c-2.59,0.9-5.98,0.08-9,3c-0.17,0.17-1.45,3.38-3,7
			c-2.87,6.69-8.11,14.48-10,23c-0.89,4-1.25,6.68-3,11c-2.37,5.83-6.02,10.26-7,16c-1.38,8.06,1.33,16.29,0,23
			c-0.78,3.94-3.91,6.82-5,10c-5.45,15.84-1.65,38.95-2,60c-0.07,4.15-1.2,7.84-1,12c1.2,25.03,0.66,53.37,1,80
			c0.19,15.3-1.26,30.78-1,46c0.51,30.04,0.43,60.36,0,91c-0.22,15.58,1.26,31.25,1,47c-0.07,4.24-1.24,7.7-1,12
			c0.2,3.72,1.06,7.19,1,11c-0.06,3.68-1.12,7.43-1,11c0.12,3.81,1.18,7.27,1,11c-0.18,3.89-1.46,7.11-2,11
			c-1.06,7.68-1.37,15.32,0,24c0.46,2.92,1.89,6.57,2,10c0.16,4.74-1.99,9.11-2,14c-0.01,4.73,1.83,9.3,2,14
			c0.16,4.62-1.02,9.51-1,14c0.02,4.92,1.26,9.2,1,14c-0.22,4.01-1.45,8.53-2,13c-1.19,9.75-1,19.98-1,30c0,10.88-1.51,20.69-1,31
			c0.35,7.02,3.8,14.23,4,21c0.14,4.8-2.43,10.77-3,17c-0.7,7.59,0.41,15.75-1,21c-0.3,1.13,0.52,2.97,0,4c-0.17,0.34-2.11,2.11-3,3
			c-1.53,1.53-5.11,5.26-6,9c-1.55,6.53-0.62,21.83,0,31c0.23,3.32,1.3,5.9,1,9c-0.52,5.33-2.69,8.46-5,12c-1.73,2.64-5.9,4.62-6,10
			c-0.1,5.22,5.05,9.96,6,15c0.46,2.46-0.2,6.74,0,10c0.19,3.12,1.31,6.52,1,9c-1.48,11.65-12.29,12.8-14,24
			c-0.56,3.68,0.87,7.74,1,13c0.1,4.15-1.39,9.37-1,12c0.72,4.88,6.69,10.43,6,17c-0.9,8.59,0.04,16.76,0,26
			c-0.02,4.24-1.1,8.56-1,13c0.09,3.92,1.19,8.06,1,12c-0.35,7.36-3.85,13.8-5,21c-1.19,7.46-0.16,14.73,0,23
			c0.31,15.76-1.25,31.87-1,48c0.12,7.8-0.12,16.11,0,24c0.06,4.17,1.15,7.84,1,12c-0.12,3.55-1.05,7.24-1,11
			c0.06,4.14,1.17,8.06,1,12c-0.14,3.28-1.83,6.57-2,10c-0.44,8.67,1.45,15.91,0,23c-0.77,3.74-2.08,7.75-4,12
			c-0.79,1.74-2.15,4.61-3,6c-1.17,1.91-3.85,3.33-5,5c-1.21,1.76-2.3,3.95-3,6c-2,5.82-1.19,13.22-3,20c-0.77,2.89-3.29,5.26-4,8
			c-0.78,3.01-0.28,6.94-1,10c-2.19,9.36-6.52,16.5-9,26c-2.73,10.47-1.06,25.61-1,39c0.02,4.76-1.06,10.19-1,15
			c0.06,4.97,1.47,9.38,1,14c-0.61,5.99-4.02,11.75-6,18c-1.99,6.28-2.71,12.9-4,19c-1.34,6.37-3.13,12.33-4,19
			c-0.47,3.63-0.37,7.53-1,11c-0.61,3.34-1.83,5.84-2,9c-0.32,5.78,1.41,11.78,1,18c-0.55,8.34-5.24,15.34-8,24
			c-0.72,2.27-0.33,4.94-1,7c-1.93,5.95-7.21,13-8,22c-0.44,5.01,0.96,10.55,1,16c0.04,5.25-1.02,9.99-1,15
			c0.02,4.94,1.09,10.1,1,15c-0.34,19.16-0.95,38.49-1,59c-0.01,5.36,1.21,10.08,1,15c-0.35,8.28-4.29,15.71-6,24
			c-0.89,4.32-0.7,8.41-2,13c-1.08,3.82-3.83,7.86-4,11c-0.17,3.19,1.43,6.79,2,10c0.64,3.6,1.13,6.56,1,10
			c-0.16,4.23-0.76,6.47-2,10c-0.92,2.62-2.75,5.3-3,8c-0.33,3.53,1.7,5.58,2,9c0.67,7.62-2.16,13.98-4,21
			c-0.96,3.67-0.94,8.26-2,12c-2.03,7.16-6.35,13.67-7,21c-0.53,5.97,0.99,11.52,1,17c0.01,5.81-0.45,11.55-1,17
			c-0.98,9.84-4.71,18.62-7,29c-1.57,7.1,0.12,17.96,0,28c-0.05,3.85-1.22,7.23-1,11c0.26,4.3,1.61,7.07,1,12
			c-0.44,3.6-2.53,8.04-4,12c-1.52,4.11-2.74,7.85-4,12c-2.8,9.2-8.15,17.41-9,27c-0.59,6.64,1.68,14.32,1,21
			c-0.98,9.62-8.14,17.44-9,29c-0.45,6.01,1.15,12.67,1,19c-0.08,3.12-0.76,6.01-1,9c-0.18,2.24-0.07,4.63,0,7c0.09,2.82,1,6.15,1,9
			c0,3.01-1.02,5.15-1,8c0.06,7.21,2.63,13.87,1,21c-0.92,4.02-3.68,7.45-5,11c-1.54,4.12-2.39,7.7-3,12c-1.08,7.58,0.66,15.39,0,23
			c-0.83,9.52-7.96,18.32-9,28c-0.84,7.86,2.24,15.43,1,24c-1.09,7.52-7.97,15.83-9,25c-0.79,7.1,1.19,14.57,0,22
			c-0.89,5.55-3.9,11.38-6,18c-1.97,6.2-3.09,13.18-5,19c-0.51,1.55-1.56,2.62-2,4c-0.99,3.11-1.3,5.98-2,10
			c-1.4,8.05-7.06,16.58-8,25c-0.47,4.21-0.06,8.69,0,13c0.05,3.73,0.21,7.29,0,11c-0.46,8.23,0.14,15.87,0,24
			c-0.07,4.24-1.18,7.7-1,12c0.17,3.98,1.07,7.77,1,12c-0.07,4.05-1.14,7.92-1,12c0.23,6.81,1.15,11.09,0,18
			c-1.06,6.37-3.91,13.9-5,21c-1.3,8.47-0.53,16.37-2,23c-1.79,8.08-6,12.72-8,22c-0.91,4.24-1.06,8.67-2,13
			c-0.76,3.54-2.37,7.42-3,11c-0.86,4.9-0.38,9.3-1,14c-0.51,3.85-2.06,7.21-3,11c-0.6,2.4-0.21,4.57-1,7c-0.56,1.71-1.37,3.07-2,5
			c-1.29,3.94-2.4,6.96-3,11c-0.96,6.51-0.22,13.8-1,21c-0.53,4.92-1.36,9.37-3,14c-1.04,2.94-3.93,6.34-5,11
			c-1.71,7.42,0.12,18.23,0,28c-0.05,3.86-1.19,7.23-1,11c0.29,5.84,1.59,9.75,0,16c-1.77,6.94-5.51,13.03-7,21
			c-1.45,7.76-3.78,15-5,23c-1.05,6.84-1.18,13.78-3,20c-2.09,7.17-6.61,12.76-9,20c-1.93,5.83-4.21,15.23-6,22
			c-0.8,3.02-1.08,6.21-2,9c-0.94,2.85-2.88,4.22-4,7c-2.13,5.31-2.64,12.31-4,19c-0.34,1.67-0.51,3.57-1,5c-0.3,0.88-1.86,2.46-2,3
			c-1.63,6.15-1.85,12.55-3,19c-1.05,5.89-3.09,11.4-5,17c-1.94,5.68-4.51,11.47-5,17c-0.52,5.87,1.02,11.63,1,18
			c-0.02,5.91-1.1,12.32-1,18c0.75,44.4,1.06,91.17,0,136c-0.15,6.31-0.23,11.85-1,18c-0.66,5.34-0.99,10.79-2,16
			c-0.96,4.96-2.75,9.77-4,15c-0.62,2.6-0.31,5.42-1,8c-0.56,2.07-2.35,3.94-3,6c-1.55,4.94-2.99,9.7-4,15c-0.52,2.74-0.34,5.18-1,8
			c-0.52,2.22-1.43,4.53-2,7c-1.24,5.37-2.06,10.75-3,16c-0.49,2.74-1.37,5.26-2,8c-0.62,2.68-0.21,5.55-1,8
			c-1.42,4.42-4.56,8.52-6,13c-0.9,2.78-0.25,5.17-1,8c-1.43,5.44-6.29,13.19-8,20c-1.15,4.59-0.86,9.4-2,14
			c-0.59,2.38-2.42,4.71-3,7c-1.8,7.11-2.2,15.29-4,23c-1.14,4.86-2.64,10.19-4,15c-2.21,7.82-5.31,15.94-8,25
			c-1.69,5.69-3.02,14.05-6,21c-0.43,1.01-1.67,2.25-2,3c-1.9,4.25-2.46,8.84-4,14c-2.88,9.65-11.11,21.2-14,32
			c-0.62,2.32-1.75,4.67-2,7c-0.77,7.14,2.05,14.31,1,23c-0.42,3.51-0.92,7.86-2,12c-0.81,3.11-3.19,6.21-4,10
			c-3.06,14.31-1.25,35.25-4,50c-0.67,3.62-1.92,7.77-3,11c-1.22,3.64-2.75,7.23-4,9c-1.37,1.94-0.64,2.37-3,4
			c-2.81,1.94-9.72,1.63-12,6c-2.76,5.29,1.24,18.17,0,25c-0.44,2.41-2.49,5.73-4,8c-1.99,3-5.54,7.81-7,13
			c-1.98,7.05-1.8,14.82-4,22c-1.01,3.28-2.78,5.96-4,9c-2.46,6.11-3.41,13.11-6,20c-0.49,1.3-1.14,3.49-2,5
			c-0.42,0.74-2.58,1.95-3,3c-1.35,3.36-0.84,7.37-2,11c-0.17,0.53-1.89,1.62-2,2c-1.45,4.79-4.81,10.75-6,16
			c-0.85,3.78-0.19,7.57-1,12c-1.24,6.74-3.8,13.98-5,21c-0.68,3.97-1.15,7.39-2,11c-1.49,6.31-3.81,12.96-6,20
			c-0.95,3.04-2.72,6.38-3,9c-0.86,8,1.93,15.22,1,23c-0.89,7.43-5.9,12.75-8,21"/>
		<path fill="#82ccea" stroke="#000000" stroke-width="0" stroke-linecap="round" d="M3530,7020c5.81-11.92,0.66-24.49-2-36
			c-2.76-11.94-5.73-24.23-10-36c-5.81-16.02-11.56-34.93-17-52c-1.86-5.83-4.34-11.74-5-17c-1.11-8.83-1.05-20.1,0-30
			c0.4-3.73,1.79-7.3,3-11c1.14-3.51,1.82-6.94,3-10c0.2-0.51,1.89-1.63,2-2c0.71-2.35,0.83-4.6,2-7c1.44-2.95,3.29-5.6,5-8
			c4.94-6.92,11.84-14.1,17-22c1.01-1.55,0.99-3.46,2-5c0.8-1.22,2.33-1.72,3-3c7.19-13.8,6.85-29.95,4-45
			c-2.54-13.45-6.51-27.37-6-46c0.1-3.71,2.05-7.67,4-11c2.16-3.69,4.37-5.8,7-10c3.29-5.27,7.91-11.1,11-18
			c1.15-2.57,1.83-5.14,3-8c1.04-2.54,3.04-4.71,4-7c5.76-13.67,4.9-34.92,0-49c-1.04-2.99-3.07-5.15-4-8c-0.98-3-1.08-5.78-2-9
			c-1.54-5.36-3.99-10.54-5-17c-2.1-13.49-0.57-24.8,3-37c1.26-4.3,1.74-7.55,4-12c0.6-1.19,1.4-1.75,2-3c3.41-7.08,6.28-14.67,9-23
			c0.87-2.67,1.17-5.18,2-8c1.6-5.42,4.34-10.4,5-16c1.33-11.37,1.22-28.97,0-42c-1.05-11.22-6.65-21.5-11-31
			c-5.31-11.61-11.21-17.35-8-32c2.9-13.27,14.7-22.81,18-34c1.23-4.18,1.38-9.8,2-15c2.99-24.85,1.23-55.49,1-80
			c-0.1-10.29,2.58-20.21,3-30c0.37-8.46-1.06-17.14,0-26c0.23-1.95,1.71-3.89,2-6c2.71-19.48,3-40.83,3-64c0-5.81-0.29-11.39,0-17
			c0.25-4.73,1.69-9.2,2-14c1.12-17.4-1.55-33.44,0-51c0.4-4.49,2.29-9.16,3-14c0.77-5.24,1.1-9.79,2-15c2.16-12.48,5.93-27.89,6-44
			c0.09-20.28-4.22-37.98-13-54c-3.97-7.24-8.37-14.92-11-23c-1.38-4.23-2.7-8.92-4-13c-1.91-6-4.09-9.94-3-17
			c0.98-6.35,5.6-12.39,9-19c3.18-6.19,6.07-12.6,9-18c2.34-4.31,4.88-8.49,7-14c2.32-6.02,7.07-20.17,5-29c-1.2-5.11-2.46-7.3-5-11
			c-3.52-5.12-8.55-11.15-13-17c-2.68-3.53-5.43-5.69-6-9c-0.63-3.64,1.59-7.63,2-12c1.93-20.51-0.26-44.69-2-64
			c-0.71-7.95-1.26-15.53-3-23c-5.97-25.59-19.68-51.81-29-76c-2.57-6.67-5.74-12.9-7-20c-3.89-21.87-1.48-50.31-5-74
			c-1.12-7.56-3.68-14.12-6-21c-3.31-9.79-6.94-18.27-10-29c-0.92-3.22-2.19-6.68-3-10c-1.86-7.63-1.72-15.29-3-23
			c-0.63-3.78-2.39-7.12-3-11c-0.57-3.62-0.27-8.03-1-12c-0.32-1.78-1.76-3.36-2-5c-1.88-12.91-3.41-26.9-4-42
			c-0.17-4.26-0.46-7.86-1-12c-0.45-3.48-1.84-7.53-2-11c-0.35-7.82,1.24-16.19,1-26c-0.19-8.04-1-16.03-2-24
			c-0.96-7.63-1.59-15.41-3-23c-1.31-7.04-3.93-13.83-5-21c-0.6-4.04-0.44-8.8-1-13c-1.31-9.87-4.21-22.18-5-34
			c-0.61-9.09,0.31-17.94,0-27c-0.52-14.93-3.33-31.78-9-44c-5.4-11.65-12.89-21.08-18-34c-1.29-3.27-2.09-6.29-3-10
			c-0.85-3.46-2.87-7.07-3-10c-0.15-3.51,1.31-7.66,2-12c3.99-25.04,14.32-54.57,14-82c-0.09-8.01-1.97-15.35-4-24
			c-1.68-7.15-2.62-15.3-5-22c-0.18-0.52-1.89-1.62-2-2c-0.27-0.89,0.34-2.13,0-3c-0.2-0.51-1.89-1.63-2-2
			c-1.13-3.73-2.61-8.05-4-12c-2.29-6.5-5.42-14.11-6-21c-0.47-5.64,0.92-11.06,2-17c1.62-8.89,3.37-15.68,6-23
			c2.31-6.43,5.18-12.99,8-19c3.92-8.36,7.8-17.17,13-25c0.25-0.37,1.85-0.67,2-1c0.23-0.51-0.31-1.54,0-2c0.25-0.37,1.85-0.68,2-1
			c0.82-1.82,2.47-4.6,4-7c2.29-3.57,5.58-7.37,7-11c1.59-4.06,1.91-10.16,3-15c1.98-8.78,5.08-15.5,2-24c-3.63-10.02-7.6-17-14-22
			c-7.99-6.25-17.44-7.23-21-15c-2.41-5.26-1.21-10.72-1-16c0.03-0.77-1.25-1.05-1-2c2.24-8.51,3.49-20.68,6-31
			c2.56-10.5,5.75-20.72,9-31c6.75-21.32,14.36-43.01,10-67c-1.25-6.9-2.76-12.57-7-17c-0.45-0.47-1.9-2.69-3-4
			c-4.23-5.05-9.94-10.4-16-15c-1.88-1.43-3.91-2.43-6-4c-0.33-0.25-0.7-1.87-1-2c-0.51-0.23-1.54,0.31-2,0
			c-0.37-0.25-0.68-1.85-1-2c-0.48-0.21-1.6,0.32-2,0c-7.35-5.75-11.45-14.87-16-25c-2.04-4.55-4.17-9.22-6-14
			c-1.96-5.11-3.16-10.5-5-15c-0.98-2.4-2.88-4.31-4-7c-0.62-1.49-0.39-2.44-1-4c-1.08-2.75-3.67-6.7-5-10c-0.98-2.43-0.97-5.44-2-8
			c-1.03-2.57-3.21-4.62-4-7c-0.94-2.8-1.19-5.2-2-8c-0.68-2.34-1.31-5.58-2-8c-3.56-12.48-6.77-28.58-5-44
			c1.53-13.3,4.94-32.35,14-41c1.79-1.71,4.02-2.43,6-4c1.83-1.45,3.25-3.66,5-5c2.14-1.63,4.01-2.41,6-4c1.66-1.33,3.17-3.23,5-5
			c6.39-6.18,13.15-12.5,17-22c1.05-2.59,0.97-5.7,2-9c0.72-2.32,2.62-5.01,3-7c0.58-3.07,0.57-6.7,1-10c2.42-18.67,2.08-49.83-3-68
			c-2.9-10.35-8.24-18.96-13-29c-2.41-5.09-5.82-10.85-6-15c-0.22-5.2,3.15-10.11,5-15c1.81-4.78,3.86-9.69,5-14
			c3.59-13.53,5.11-38.79,1-54c-2.35-8.71-7.53-18.33-13-26c-2.51-3.52-5.75-6.2-9-10c-4.39-5.13-8.91-10.62-14-16
			c-0.75-0.79-2.35-1.16-3-2c-1.61-2.07-4.04-5.7-6-8c-0.25-0.29-1.88-0.73-2-1c-0.23-0.51,0.31-1.54,0-2c-0.25-0.37-1.85-0.68-2-1
			c-5.7-12.64-14.29-24.98-21-39c-2.06-4.31-4.05-9.27-6-14c-1.96-4.74-4.37-9.45-5-14c-1.07-7.8-1.14-21.01,0-28
			c0.14-0.85,1.56-2.62,2-4c2.62-8.23,4.87-16.8,8-26c0.33-0.97,1.79-2.36,2-3c3.88-11.81,5.61-24.16,8-36
			c2.5-12.36,5.96-24.96,6-38c0.02-6.16-1.15-13.16-2-20c-0.8-6.45-1.42-13.04-3-19c-0.73-2.75-2.23-5.53-3-8
			c-4.02-12.93-10.65-25.69-18-37c-1.22-1.87-2.25-4.78-4-7c-0.68-0.86-2.15-1.89-3-3c-1.91-2.49-2.57-2.62-6-5
			c-0.36-0.25-0.68-1.86-1-2c-2.38-1.07-5.11-3.15-8-5c-4.47-2.86-9.42-5.71-14-8c-13.12-6.54-28.73-7.71-31-25
			c-0.76-5.78,0.87-12.18,2-18c0.31-1.6-0.35-3.41,0-5c0.47-2.12,2.68-6.25,4-10c0.93-2.63,0.84-5.62,2-8c0.22-0.45,1.83-0.63,2-1
			c6.93-15.36,15.76-32.13,24-46c0.7-1.18,0.18-1.14,1-2c0.98-1.03,1.76-2.51,3-4c3.72-4.46,6.92-12.32,11-18
			c0.25-0.35,1.86-0.69,2-1c0.23-0.5-0.31-1.55,0-2c0.25-0.36,1.86-0.68,2-1c0.23-0.51-0.31-1.54,0-2c0.25-0.37,1.85-0.67,2-1
			c0.23-0.51-0.31-1.54,0-2c0.25-0.37,1.85-0.68,2-1c0.23-0.51-0.31-1.54,0-2c0.25-0.37,1.85-0.67,2-1c4.08-9.04,12.32-18.81,19-27
			c1.68-2.06,3.62-5.21,6-8c6.44-7.57,14.72-18.51,22-27c3.93-4.58,7.01-7.91,10-9c4.73-1.73,16.87-0.64,23-2
			c8.89-1.97,15.23-7.2,22-13c2.88-2.47,6.31-5.02,9-8c0.74-0.82,1.34-2.2,2-3c2.5-3.07,7.75-7.3,11-11c1.07-1.22,1.75-3.52,3-5
			c3.54-4.18,7.25-7.41,11-12c3.57-4.38,9.93-11.2,13-17c1.09-2.06,1.03-4.87,2-7c0.85-1.86,2.2-3.47,3-5
			c4.21-8.07,7.86-15.85,11-24c6.57-17.04,14.56-31.21,24-45c4.75-6.93,8.18-14.81,12-23c2.93-6.28,5.83-11.08,8-19
			c0.55-1.99,1.42-3.9,2-6c5.25-19.09,7-40.01,7-62c0-24.33,2-46.98,2-68c0-12.15-0.13-21.8-4-31c-1.6-3.81-3.73-6.95-6-11
			c-3.26-5.81-7.46-11.18-8-21c-0.23-4.14,0.96-8.3,1-13c0.05-5.81-0.86-11.19,0-16c0.99-5.53,3.49-10.77,6-16
			c3.09-6.44,9.01-11.49,7-23c-0.12-0.72-1.79-2.87-2-4c-0.68-3.69-0.54-7.2-1-11c-0.96-7.86-2.58-15.64-3-22
			c-0.32-4.74,1.07-7.8,3-12c1.25-2.72,2.84-9.11,4-13c2.37-7.95,3.06-15.65,4-24c1.93-17.14,4.26-35.19,2-55
			c-0.91-7.96-4.02-15.08-7-21c-2.77-5.5-8.32-10.97-10-18c-1.28-5.35-0.87-15.01,0-20c1.92-10.99,9.71-19.23,14-29
			c2.09-4.76,3.15-10.41,5-16c1.83-5.54,4.71-10.69,5-16c1.24-22.61-15.02-25.84-26-37c-13.97-14.2-20.78-33.9-28-56
			c-1.54-4.71-2.76-8.19-4-14c-2.16-10.14-2.05-24.68-6-35c-2.64-6.9-10.48-16.93-20-21c-1.96-0.84-4.8-1.4-7-2
			c-5-1.37-12.69-3.22-19-5c-4.53-1.28-7.97-3.04-12-5c-1.91-0.93-4.28-0.93-6-2c-1.3-0.81-2.53-2.91-4-4c-6-4.44-12.21-10.17-19-14
			c-7.66-4.31-17.8-5.83-22-13c-3.53-6.03-4.04-24.25-2-38c1.13-7.62,3.38-14.63,6-21c0.84-2.05,1.9-4.43,3-7
			c2.31-5.38,5.2-12.01,8-18c1.29-2.75,3.29-4.57,4-7c0.8-2.71,0.05-5.79,1-9c1.18-4,4.18-7.29,5-11c1.51-6.78,1.85-14.23,2-23
			c0.24-13.65-2.37-26.75-2-40c0.34-12.38,3.25-24.88,4-37c1-16.14,2.37-29.57,3-46c0.01-0.31-1.12-2.45-1-4
			c0.24-3.17,0.63-3.37,0-8c-0.35-2.53-0.56-6.59-1-12c-2.2-27.18-1.85-50.33-7-77c-0.15-0.79-0.99-2-1-2c-0.05-0.78,1.22-1.02,1-2
			c-0.11-0.48-1.95-2.69-2-3c-0.13-0.75,1.25-1.04,1-2c-0.71-2.72-2.87-9.32-3-15c-0.06-2.8,1.09-5.94,1-9
			c-0.36-12.69-0.95-25.1-2-37c-1.16-13.16-0.13-26.58-2-40c-0.34-2.43-1.32-4.92-1-6c0.54-1.83-1.68-7.28-2-10
			c-0.53-4.46-0.67-8.29-1-14c-0.04-0.73-1.24-1.09-1-2c0.28-1.06,0.49-6.94,0-11c-0.33-2.68-1.76-5.31-2-8c-0.62-7,0.13-13.35-1-20
			c-0.99-5.78-3.03-11.18-4-17s-1.78-12.08-2-18c-0.55-14.52,5.16-19.47,9-31c2.45-7.36,4.6-16.17,5-25c0.12-2.56,0.39-3.63,0-6
			c-1.29-7.79-4.35-16.31-7-24c-2.63-7.63-6.58-14.22-8-22c-2.95-16.12-1.33-32.27,1-49c0.33-2.39-0.4-4.98,0-7
			c0.36-1.84,1.62-3.19,2-5c2.26-10.71,2.44-21.35,0-35c-3.04-16.99-2.5-33.96-3-50c-0.06-2.04,1.03-3.94,1-6
			c-0.1-7.84-1.58-21.39,0-31c0.64-3.88,2-7.36,2-11s-1.42-8.02-2-12c-1.46-10.02-1.03-25.57-3-38c-1.18-7.41-3.5-14.92-6-21
			c-3.11-7.57-8.42-11.98-9-20c-0.29-4.1,1.93-9.64,3-15c1.02-5.07,1.48-9.9,2-15c1.09-10.78,2.92-21.48,3-31
			c0.12-15-3.63-22.06-13-31c-5.13-4.9-10.58-9.56-17-13c-14.39-7.71-29.58-11.66-48-10c-10.4,0.94-20.43,0.09-29,1
			c-4,0.43-8.27,2.1-12,3c-19.21,4.61-35.64,12.77-46,28c-5.93,8.72-10.41,19.69-14,31c-3.74,11.78-6.93,24.81-7,37
			c-0.07,13.09,2.94,26.21,7,38c1.87,5.43,3.34,11.3,6,16c1.88,3.33,4.45,6.32,7,10c0.25,0.36,1.86,0.68,2,1
			c0.53,1.18,0.52,2.69,2,4c0.92,0.82,3.46,1.02,5,2c1.08,0.69,2.1,1.9,4,3c5.93,3.42,11.54,5.64,19,9c0.49,0.22,1.64,1.89,2,2
			c0.89,0.27,2.13-0.34,3,0c0.51,0.2,1.63,1.89,2,2c4.13,1.25,7.66,3.35,12,5c3.51,1.33,7.77,1.43,11,3c2.74,1.33,5.38,4.26,8,6
			c0.73,0.48,2.2,0.4,3,1c0.45,0.34,0.57,1.72,1,2c1.7,1.08,3.56,1.04,5,2c0.76,0.51,1.04,1.41,2,2c5.09,3.13,12.76,8.08,19,12
			c0.7,0.44,2.22,0.42,3,1c0.43,0.32,0.59,1.76,1,2c1.46,0.87,3.61,1.21,5,2c6.49,3.66,12.55,6.95,25,10c5.99,1.47,17.71,3.19,20,7
			c4.46,7.44-0.17,39.43,1,52c1.32,14.2,7.39,17.83,5,30c0.07-0.37,1.56,0.56,1,1c-2.14,1.71-2.92,7.3-4,12
			c-1.58,6.86-2.25,13.8-3,21c-1.72,16.61-5.17,39.66,2,54c0.42,0.84,1.74,1.44,2,2c5.2,11.31,13.03,30.82,11,43
			c-0.95,5.71-4.95,14.83-7,21c-0.61,1.84-0.26,3.77-1,6c-0.76,2.28-3.3,4.69-4,7c-1.43,4.73-2.84,12.79-2,21
			c0.6,5.87,2.71,11.97,4,18c0.62,2.88,1.18,5.8,2,9c0.52,2.05,1.77,4.97,2,7c0.79,6.81,0.2,14.12,1,21c2.22,19.09,3.51,39.61,6,60
			c0.84,6.91,0.5,14.02,1,21c0.49,6.81,1.81,13.22,2,20c0.42,15.01-1.28,29.47,0,44c0.53,5.99,2.61,12.03,4,18
			c1.4,5.99,3.37,12.05,4,18c0.75,7.08-0.55,14.49,0,22c0.5,6.76,1.82,13.41,2,20c0.2,7.12,0.25,13.86,1,21
			c0.59,5.59,1.99,11.51,2,17c0.02,5.72-1.35,12.04-2,18c-1.92,17.5-2.05,34.7-4,51c-1.22,10.19-3.3,20.87-1,29
			c0.38,1.34,0.82,1.87,1,3c-0.06-0.35-1.57,0.54-1,1c1.47,1.17,2.84,10.34,3,14c0.04,0.87-1.1,2.24-1,4c0.06,1.04,1.12,2.12,1,4
			c-0.41,6.5-3.26,14.6-6,22c-4.9,13.23-10.57,26.96-17,40c-2.21,4.49-4.87,8.82-6,13c-1.39,5.14-1.52,11.19-2,17
			c-0.42,5.06-1.02,10.74-1,16c0.02,5.13,2.47,11.01-1,16c-7.88,3.52-16.1,1.67-24,2c-7.8,0.33-15.78,1.24-23,3
			c-13.51,3.29-26.67,8.34-38,14c-23.43,11.71-45.37,23.53-68,36c-1.62,0.89-3.3,0.9-5,2c-1.07,0.7-1.71,2.22-3,3
			c-2.83,1.71-6.12,2.51-9,4c-16.44,8.52-33.1,18.24-49,29c-1.55,1.05-2.19,1.91-4,3c-8.31,5-19.17,10.35-30,15
			c-5.6,2.4-12.29,5.06-18,8c-6.43,3.31-13.38,6.58-16,10c-2.73,3.56-3.17,10.79-5,17c-1.24,4.19-3.84,8.1-5,12
			c-1.4,4.69-1.18,9.58-3,14c-0.66,1.61-3.05,3.23-4,5c-1.14,2.12-0.93,4.38-2,6c-0.25,0.37-1.85,0.67-2,1c-1.18,2.61-3.67,5.13-6,8
			c-4.89,6.04-9.64,13.02-13,21c-2.38,5.64-3.72,12.87-6,20c-0.21,0.66-0.55,2.1-1,3c-0.41,0.83-1.75,1.46-2,2
			c-5.08,11.31-10.1,23.65-12,39c-1.27,10.25-2.09,20.77-3,31c-0.92,10.31-1.1,19.36,2,30c1.11,3.8,3.27,7.99,5,12
			c1.69,3.92,3.21,8.18,5,12c3.54,7.58,9.22,13.84,12,22c1.65,4.86,1.67,9.9,3,14c0.63,1.95,2.13,3.89,3,6c0.75,1.81,1.07,4.6,2,6
			c1.81,2.73,6.22,5.22,9,8c4.17,4.17,6.92,7.19,11,11c1.6,1.5,4.59,3.13,7,5c4.59,3.56,9.82,7.01,15,11c2.18,1.68,3.82,2.91,6,5
			c0.14,0.13,0.94,0.96,1,1c5.03,3.44,11.02,7.17,17,12c3.01,2.43,5.76,5.44,9,8c0.93,0.74,2.14,1.3,3,2c3.08,2.51,7.49,6.07,11,10
			c6.33,7.08,9.67,17.97,14,29c5.46,13.92,9.44,34.65,15,50c2.7,7.46,5.41,14.5,8,22c3.12,9.01,5.32,20.53,10,29
			c0.94,1.71,1.4,3.33,3,5c2.51,2.62,5.31,10.36,8,14c2.77,3.75,6.44,7,10,10c3.45,2.91,7.09,5.12,11,8c7.4,5.45,14.99,11.78,22,18
			c3.61,3.2,6.82,6.39,10,10c2.38,2.7,4.41,4.83,7,8c5.51,6.76,13.21,17.2,18,26c4.74,8.72,7.92,18.92,11,29
			c1.67,5.46,2.84,10.65,4,16c0.48,2.23,1.69,3.52,2,8c0.63,9.08-0.19,19.11,2,28c0.8,3.26,2.78,6.87,4,11
			c3.06,10.3,2.55,25.57,5,39c0.96,5.28,2.93,10.54,4,16c1.09,5.55,1.65,11.11,3,16c1.05,3.81,3.48,8.6,6,14
			c3.76,8.06,5.32,13.56,10,20c2.47,3.4,6.17,6.89,9,11c1.8,2.62,2.98,4.36,3,6c0.06,5.55-5.11,8.57-9,13
			c-7.57,8.62-11.51,14.9-18,24c-0.84,1.19-2.23,1.77-3,3c-0.75,1.19-0.18,2.83-1,4c-1.38,1.97-3.8,3.28-5,5
			c-5.9,8.44-11.45,16.98-17,25c-0.7,1.01-2.46,2.05-3,3c-0.72,1.28-0.21,2.73-1,4c-0.24,0.39-1.85,0.66-2,1
			c-0.23,0.51,0.31,1.54,0,2c-0.25,0.37-1.85,0.68-2,1c-1.33,2.95-3.19,7.06-6,10c-0.81,0.85-1.2,2.16-2,3c-0.7,0.73-1.67,2.83-3,5
			c-3.94,6.42-7.98,15.97-12,24c-4.83,9.65-9.54,19.12-13,29c-7.99,22.82-12.55,46.25-5,71c2.79,9.15,8.4,14.99,15,22
			c3.36,3.57,5.93,6.31,10,9c9.99,6.62,26,12.53,36,19c4.35,2.82,7.3,4.84,10,9c1.03,1.58,1.83,3.86,3,6c1.02,1.86,2.03,4.12,3,6
			c9.61,18.52,12.41,38.33,10,62c-0.55,5.44-1.84,10.44-3,16c-0.96,4.61-1.64,10.16-3,15c-2.51,8.96-6.98,17.6-10,27
			c-0.82,2.56-1.01,5.4-2,8c-0.77,2.03-2.48,4.14-3,6c-1.43,5.15-1.23,10.92-2,16c-2.38,15.71-2.14,34.68,2,50
			c1.25,4.63,3.3,8.57,5,13c1.9,4.94,2.83,9.5,5,14c1.88,3.9,4.75,7.03,7,11c2.32,4.08,3.73,8.66,6,13c2.01,3.84,4.83,7.25,7,11
			c1.29,2.21,1.71,5.02,3,7c0.25,0.38,1.85,0.67,2,1c1.82,4.04,4.65,7.9,8,12c4.8,5.88,11.64,14.51,19,22c3.12,3.18,6.01,6.27,9,10
			c4.22,5.27,8.71,8.45,10,16c1.15,6.75-0.06,13.71-1,21c-1.03,7.98-7.57,17.29-10,26c-4.1,14.68-3.22,32.59,4,49
			c5.57,12.66,13.48,26.48,16,42c2.63,16.2,1.89,36.52-5,50c-1,1.95-1.06,3.8-2,5c-2.67,3.41-7.68,5.55-12,9
			c-3.89,3.11-6.78,6.44-11,10c-2.93,2.47-7.88,6.22-11,10c-0.84,1.02-1,3.69-2,5c-1.03,1.35-3.4,1.99-4,3
			c-3.39,5.71-5.04,13.34-7,21c-6.34,24.82-7.32,48.78-3,75c2.05,12.46,4.45,23.63,8,34c0.91,2.65,1.68,5.14,3,8
			c0.62,1.34,1.23,3.32,2,5c0.62,1.34,1.23,3.32,2,5c0.62,1.34,1.23,3.32,2,5c6.35,13.77,12.76,31.8,19,47c2.1,5.11,4.28,9.26,7,14
			c2.52,4.4,4.54,8.64,8,13c5.56,6.99,11.96,13.78,21,21c6.33,5.06,14.36,7.35,16,15c1.14,5.33-1.33,12.31-3,20
			c-1.45,6.67-2.31,13.92-4,19c-0.95,2.84-3.06,5.1-4,8c-0.92,2.84-1.11,6.1-2,9c-1.93,6.29-4.6,11.99-6,17
			c-1.55,5.55-2.75,12.34-4,19c-2.43,12.96-3.3,26.16-2,42c0.63,7.64,0.77,13.97,3,20c3.92,10.59,12.96,18.82,23,26
			c4.54,3.25,7.47,3.57,8,8c0.58,4.9-6.88,13.25-11,20c-0.64,1.05-0.41,2.05-1,3c-1.02,1.64-3.42,4.42-5,7
			c-9.57,15.65-16.89,34.11-23,54c-7.14,23.24-9.02,45.43-3,67c1.93,6.92,4.11,15.76,7,24c1.22,3.47,3.6,6.36,5,10
			c1.46,3.81,1.7,8.63,3,13c1.17,3.93,3.51,7.45,4,11c0.68,4.91,0.5,11.26,0,16c-0.45,4.23-2.1,7.72-3,12
			c-1.77,8.41-2.74,17.17-5,26c-2.09,8.17-4.88,16.68-6,25c-2.89,21.44-0.2,40.91,5,55c4.01,10.88,9.66,20.24,16,30
			c1.88,2.89,4.77,5.59,6,9c2.08,5.75,2.21,13.41,3,21c1.52,14.6-0.35,30.38,2,46c0.51,3.42,1.44,6.78,2,10
			c2.77,16.06,5.55,33.96,8,50c1.11,7.24,1.16,14.95,2,22c0.84,7.1,2.83,13.42,3,20c0.18,7.05-1.37,14.02-1,21
			c0.36,6.83,2.47,13.72,3,21c0.56,7.78,0.34,15.15,1,23c2.34,27.67,7.62,54.92,13,81c1.37,6.64,2.21,12.99,4,19
			c2.31,7.75,5.24,13.36,8,22c1.09,3.41,3.67,8.17,5,13c1.91,6.95,1.21,14.09,2,22c0.34,3.38,1.51,6.84,2,10
			c1.98,12.74-0.73,31.39,2,45c0.25,1.24,1.75,2.57,2,4c0.28,1.6-0.37,3.42,0,5c2.79,11.85,7.07,23.2,12,35
			c3.63,8.69,7.38,16.46,11,25c1.16,2.73,1.91,6.21,3,9c2.3,5.86,5.19,10.95,7,17c2.6,8.68,3.62,18.67,5,30c1.13,9.28,1,22.07,1,34
			c0,14.66-3.24,28.93-1,44c1.45,9.79,3.73,14.64,10,23c4.62,6.16,8.74,9.23,9,15c0.28,6.32-4.18,12.44-8,19
			c-3.43,5.89-7.36,11.61-10,17c-10.88,22.18-7.26,54.34,1,78c3.21,9.2,7.88,17.38,13,27c2.73,5.12,6.51,11.22,8,18
			c2.89,13.17,0.14,27.48-3,43c-2.75,13.59-5.63,28.57-6,42c-0.45,16.31,0.53,31.89-1,47c-1.59,15.7-2,30.52-2,45
			c0,8.28,0.41,16.3,0,24c-0.38,7.21-2.06,13.92-3,21c-1.97,14.78-1.79,29.59-3,45c-1.78,22.7-1,46.5-1,71c0,8.29,1.22,16.34,0,23
			c-0.51,2.77-2.71,5.82-4,9c-3.16,7.75-6.67,18.12-10,26c-2.52,5.97-4.66,11.58-6,18c-2.04,9.8-3.56,19.2-2,30
			c0.41,2.84,0.49,6.55,1,9c2.07,9.92,7.42,18.24,12,28c2.26,4.82,6,9.13,6,15c0,10.32,1.13,19.7,0,28c-1.06,7.75-4.09,15.63-7,23
			c-5.17,13.13-11.85,25.81-16,43c-3.85,15.96-4.13,39.28,0,56c0.92,3.71,2.83,7.06,4,11c1.2,4.03,1.82,8.12,3,12
			c2.38,7.83,6.34,15.85,6,23c-0.24,5.16-3.73,9.75-6,14c-1.86,3.48-2.39,5.79-5,9c-2.46,3.02-6.04,8.98-9,13
			c-2.46,3.34-5.41,6.45-7,10c-2.97,6.64-3.86,14.71-5,22c-2.5,16.04-1.65,30.93,2,48c2.03,9.47,7.15,18.98,3,29
			c-1.88,4.55-5.7,8.24-9,13c-0.25,0.36-1.86,0.69-2,1c-0.22,0.49,0.31,1.58,0,2c-1.36,1.84-3.73,3.1-5,5c-0.68,1.01-1.25,2.71-2,4
			c-1.6,2.75-4.01,6.59-6,10c-2.92,5.02-5.08,9.56-7,14c-3.79,8.78-8.92,20.1-10,33c-1.1,13.14-0.62,27.76,1,42
			c1.71,14.97,6.81,29.31,11,43c0.63,2.07,0.35,3.29,1,5c0.38,1,1.73,2.3,2,3c1.99,5.14,3.04,10.86,5,16c0.93,2.45,3.08,4.55,4,7
			c0.99,2.64,1.08,5.8,2,9c3.08,10.75,6.02,19.93,8,34c1.22,8.67,1.63,15.16-2,19"/>
		
	</g>
	
</g>
<g> 
	<circle cx="2000" cy="2700" r="40" fill="#827c7e" />
	<text style="font-size:200px;text-anchor:middle;color:#000000;fill:#0000ff;stroke:none;stroke-width:1px;" x="2000" y="2600" id="text0001"  >
		<tspan id="tspan0001" x="2000" y="2600" >Jerusalem</tspan>
	</text>
	<circle cx="4000" cy="1000" r="40" fill="#827c7e" />
	<text style="font-size:200px;text-anchor:middle;color:#000000;fill:#0000ff;stroke:none;stroke-width:1px;" x="4000" y="900" id="text0002">
		<tspan id="tspan0002" x="4000" y="900">Damask</tspan>
	</text>
		<circle cx="4000" cy="5000" r="40" fill="#827c7e" />
	<text style="font-size:200px;text-anchor:middle;color:#000000;fill:#0000ff;stroke:none;stroke-width:1px;" x="4000" y="4900" id="text0004">
		<tspan id="tspan0004" x="4000" y="4900">Some place</tspan>
	</text>
		<text style="font-size:200px;text-anchor:middle;color:#000000;fill:#0000ff;stroke:none;stroke-width:1px;" x="3600" y="3200" id="text0005">
		<tspan id="tspan0005" x="3900" y="2900">Camp</tspan>
	</text>
</g>
<g>
	<text style="font-size:200px;text-anchor:middle;color:#000000;fill:#000000;stroke:none;stroke-width:1px;" x="-2000" y="2000" id="text0006" transform="rotate(-80)" >
		<tspan id="tspan0006" x="-2000" y="1000
		">Mider Sea</tspan>
	</text>
</g> 
<g>
<path d="M2000 2700 C 2000 3000, 2000 1600, 4000 1000" stroke="black" fill="transparent" stroke-width="20"/>
<path d="M4000 1000 C 5000 3000, 2600 1600, 4000 5000" stroke="black" fill="transparent" stroke-width="20"/>

</g>

<g fill="red">
  <rect x="3600" y="3000" width="100" height="100" />
        <rect x="3600" y="3200" width="100" height="100" />
				<rect x="3800" y="3100" width="100" height="100" />
</g>

</svg>
